<svg width="1366" height="1061" viewBox="0 0 1366 1061" fill="none" xmlns="http://www.w3.org/2000/svg">
<path d="M-325 340.343C-161.391 376.074 171.282 397.7 193.096 198.36C220.364 -50.8148 421.585 819.888 685.805 494.55C950.024 169.211 1161.59 858.44 1316.73 548.146C1471.88 237.852 1709.77 327.179 1741.74 166.391" stroke="#1B0F1F" stroke-width="9.40283"/>
<circle cx="179" cy="35" r="1" fill="#D9D9D9"/>
<circle cx="251" cy="30" r="1" fill="#D9D9D9"/>
<circle cx="262" cy="100" r="1" fill="#D9D9D9"/>
<circle cx="958" cy="35" r="1" fill="#D9D9D9"/>
<circle cx="1033" cy="28" r="1" fill="#D9D9D9"/>
<circle cx="903" cy="64" r="1" fill="#D9D9D9"/>
<circle cx="613" cy="16" r="1" fill="#D9D9D9"/>
<circle cx="1041" cy="100" r="1" fill="#D9D9D9"/>
<circle cx="714" cy="86" r="1" fill="#D9D9D9"/>
<circle cx="770" cy="37" r="1" fill="#D9D9D9"/>
<circle cx="814" cy="125" r="1" fill="#D9D9D9"/>
<circle cx="390" cy="6" r="1" fill="#D9D9D9"/>
<circle cx="462" cy="1" r="1" fill="#D9D9D9"/>
<circle cx="428" cy="43" r="1" fill="#D9D9D9"/>
<circle cx="873" cy="213" r="1" fill="#D9D9D9"/>
<circle cx="953" cy="188" r="1" fill="#D9D9D9"/>
<circle cx="964" cy="258" r="1" fill="#D9D9D9"/>
<circle cx="179" cy="35" r="1" fill="#D9D9D9"/>
<circle cx="251" cy="30" r="1" fill="#D9D9D9"/>
<circle cx="262" cy="100" r="1" fill="#D9D9D9"/>
<circle cx="958" cy="35" r="1" fill="#D9D9D9"/>
<circle cx="1033" cy="28" r="1" fill="#D9D9D9"/>
<circle cx="903" cy="64" r="1" fill="#D9D9D9"/>
<circle cx="613" cy="16" r="1" fill="#D9D9D9"/>
<circle cx="1041" cy="100" r="1" fill="#D9D9D9"/>
<circle cx="714" cy="86" r="1" fill="#D9D9D9"/>
<circle cx="770" cy="37" r="1" fill="#D9D9D9"/>
<circle cx="814" cy="125" r="1" fill="#D9D9D9"/>
<circle cx="390" cy="6" r="1" fill="#D9D9D9"/>
<circle cx="462" cy="1" r="1" fill="#D9D9D9"/>
<circle cx="428" cy="43" r="1" fill="#D9D9D9"/>
<circle cx="873" cy="213" r="1" fill="#D9D9D9"/>
<circle cx="953" cy="188" r="1" fill="#D9D9D9"/>
<circle cx="964" cy="258" r="1" fill="#D9D9D9"/>
<circle cx="409" cy="168" r="1" fill="#D9D9D9"/>
<circle cx="481" cy="163" r="1" fill="#D9D9D9"/>
<circle cx="492" cy="233" r="1" fill="#D9D9D9"/>
<circle cx="1188" cy="168" r="1" fill="#D9D9D9"/>
<circle cx="1263" cy="161" r="1" fill="#D9D9D9"/>
<circle cx="1133" cy="197" r="1" fill="#D9D9D9"/>
<circle cx="843" cy="149" r="1" fill="#D9D9D9"/>
<circle cx="1271" cy="233" r="1" fill="#D9D9D9"/>
<circle cx="944" cy="219" r="1" fill="#D9D9D9"/>
<circle cx="1000" cy="170" r="1" fill="#D9D9D9"/>
<circle cx="1044" cy="258" r="1" fill="#D9D9D9"/>
<circle cx="620" cy="139" r="1" fill="#D9D9D9"/>
<circle cx="692" cy="134" r="1" fill="#D9D9D9"/>
<circle cx="658" cy="176" r="1" fill="#D9D9D9"/>
<circle cx="1103" cy="346" r="1" fill="#D9D9D9"/>
<circle cx="1183" cy="321" r="1" fill="#D9D9D9"/>
<circle cx="1194" cy="391" r="1" fill="#D9D9D9"/>
<path d="M-325 380.908C-161.391 424.37 171.282 450.676 193.096 208.204C220.364 -94.8854 421.585 964.213 685.805 568.481C950.024 172.749 1161.59 1011.11 1316.73 633.674C1471.88 256.242 1709.77 364.896 1741.74 169.318" stroke="#1B0F1F" stroke-width="9.40283"/>
<path d="M-325 418.547C-161.391 469.182 171.282 499.83 193.096 217.338C220.364 -135.776 421.585 1098.13 685.805 637.078C950.024 176.03 1161.59 1152.76 1316.73 713.031C1471.88 273.304 1709.77 399.892 1741.74 172.033" stroke="#1B0F1F" stroke-width="9.40283"/>
<path d="M-325 451.757C-161.391 508.722 171.282 543.2 193.096 225.397C220.364 -171.856 421.585 1216.28 685.805 697.605C950.024 178.926 1161.59 1277.75 1316.73 783.052C1471.88 288.359 1709.77 430.771 1741.74 174.429" stroke="#1B0F1F" stroke-width="9.40283"/>
<path d="M-325 468.731C-161.391 528.931 171.282 565.368 193.096 229.517C220.364 -190.297 421.585 1276.67 685.805 728.54C950.024 180.406 1161.59 1341.63 1316.73 818.84C1471.88 296.054 1709.77 446.553 1741.74 175.654" stroke="#1B0F1F" stroke-width="9.40283"/>
<path d="M-325 485.705C-161.391 549.14 171.282 587.535 193.096 233.636C220.364 -208.738 421.585 1337.07 685.805 759.476C950.024 181.886 1161.59 1405.51 1316.73 854.629C1471.88 303.748 1760.03 519.092 1792 233.636H1850L1671.5 995L1180.5 1138L-7 1111L-325 485.705Z" fill="#1B0F1F" stroke="#1B0F1F" stroke-width="9.40283"/>
<circle cx="584.812" cy="271.738" r="140.66" fill="#734285"/>
<circle cx="649.516" cy="212.66" r="140.66" fill="#391447"/>
</svg>
