<svg width="600" height="690" viewBox="0 0 600 690" fill="none" xmlns="http://www.w3.org/2000/svg">
<rect width="600" height="690" fill="#391447"/>
<path d="M83.6663 263C101.238 263 115.5 248.738 115.5 231.166V199.333H83.6663C66.0943 199.333 51.833 213.594 51.833 231.166C51.833 248.738 66.0943 263 83.6663 263Z" fill="#0ACF83"/>
<path d="M51.833 167.5C51.833 149.928 66.0943 135.667 83.6663 135.667H115.5V199.334H83.6663C66.0943 199.334 51.833 185.072 51.833 167.5Z" fill="#A259FF"/>
<path d="M51.8333 103.833C51.8333 86.2613 66.0946 72 83.6666 72H115.5V135.667H83.6666C66.0946 135.667 51.8333 121.405 51.8333 103.833Z" fill="#F24E1E"/>
<path d="M115.5 72H147.333C164.905 72 179.166 86.2613 179.166 103.833C179.166 121.405 164.905 135.667 147.333 135.667H115.5V72Z" fill="#FF7262"/>
<path d="M179.166 167.5C179.166 185.072 164.905 199.334 147.333 199.334C129.761 199.334 115.5 185.072 115.5 167.5C115.5 149.928 129.761 135.667 147.333 135.667C164.905 135.667 179.166 149.928 179.166 167.5Z" fill="#1ABCFE"/>
<path d="M371.229 72L357.451 226.341L295.522 243.509L233.763 226.365L220 72H371.229Z" fill="#E44D26"/>
<path d="M295.614 230.386L345.656 216.513L357.429 84.6211H295.614V230.386Z" fill="#F16529"/>
<path d="M268.832 122.487H295.614V103.555H248.141L248.594 108.634L253.248 160.806H295.614V141.874H270.562L268.832 122.487ZM273.099 170.272H254.094L256.746 199.999L295.527 210.764L295.614 210.74V191.043L295.531 191.065L274.447 185.371L273.099 170.272Z" fill="#EBEBEB"/>
<path d="M295.549 160.806H318.862L316.664 185.36L295.549 191.059V210.755L334.361 199.999L334.645 196.8L339.095 146.958L339.557 141.874H295.549V160.806ZM295.549 122.441V122.487H341.279L341.659 118.232L342.522 108.634L342.974 103.555H295.549V122.441Z" fill="white"/>
<path d="M407.49 225.571L394.333 72H552.218L539.061 225.571L473.276 244L407.49 225.571Z" fill="#1172B8"/>
<path d="M538.886 83.1963H473.101V233.696L525.729 218.339L538.886 83.1963Z" fill="#33AADD"/>
<path d="M496.126 159.982H430.341L427.051 138.482L479.68 123.125H427.051L423.762 104.696H525.729L522.44 126.196L479.68 141.553H519.151L512.572 199.911L473.101 212.196L433.63 199.911L430.341 169.196H450.076L453.366 184.553L473.101 190.696L492.837 184.553L496.126 159.982Z" fill="white"/>
<path d="M278.375 284.625H143.625V419.375H278.375V284.625Z" fill="#F5DE19"/>
<path d="M234.143 389.898C235.291 392.23 237.075 394.19 239.289 395.553C241.503 396.915 244.057 397.624 246.656 397.598C251.901 397.598 255.256 394.975 255.256 391.342C255.256 387.011 251.81 385.461 246.035 382.934L242.868 381.577C233.725 377.684 227.661 372.809 227.661 362.5C227.661 353.005 234.88 345.772 246.203 345.772C249.869 345.508 253.532 346.328 256.734 348.131C259.937 349.934 262.537 352.641 264.212 355.912L254.313 362.241C253.668 360.618 252.545 359.231 251.093 358.261C249.642 357.292 247.93 356.786 246.184 356.812C245.423 356.736 244.654 356.819 243.926 357.057C243.198 357.294 242.528 357.68 241.958 358.191C241.388 358.702 240.931 359.326 240.615 360.023C240.3 360.72 240.133 361.475 240.125 362.241C240.125 366.038 242.479 367.578 247.912 369.941L251.079 371.298C261.839 375.913 267.922 380.615 267.922 391.188C267.922 402.589 258.966 408.835 246.94 408.835C242.254 409.134 237.582 408.07 233.487 405.772C229.392 403.474 226.05 400.04 223.864 395.885L234.143 389.898ZM189.411 390.995C191.399 394.523 193.208 397.507 197.559 397.507C201.717 397.507 204.344 395.88 204.344 389.552V346.494H217.006V389.72C217.006 402.829 209.306 408.797 198.098 408.797C194.136 409.013 190.201 408.026 186.811 405.964C183.421 403.903 180.734 400.864 179.103 397.247L189.411 390.995Z" fill="black"/>
<path d="M403.639 352.391C403.639 345.891 398.205 340.622 391.5 340.622C384.797 340.622 379.361 345.891 379.361 352.391C379.361 358.892 384.797 364.161 391.5 364.161C398.205 364.161 403.639 358.892 403.639 352.391Z" fill="#53C1DE"/>
<path fill-rule="evenodd" clip-rule="evenodd" d="M430.924 330.54C433.487 320.44 436.709 301.711 425.35 295.362C414.044 289.04 399.332 301.154 391.563 308.425C383.817 301.226 368.691 289.164 357.342 295.534C346.04 301.877 349.525 320.295 352.146 330.459C341.603 333.362 323.531 339.615 323.531 352.391C323.531 365.13 341.584 371.934 352.064 374.834C349.435 385.053 346.124 403.209 357.44 409.538C368.832 415.907 383.91 404.131 391.751 396.78C399.57 404.095 414.141 415.947 425.449 409.6C436.793 403.233 433.838 384.755 431.218 374.533C441.377 371.626 459.469 364.971 459.469 352.391C459.469 339.738 441.3 333.434 430.924 330.54ZM429.636 369.116C427.915 363.835 425.593 358.22 422.752 352.419C425.464 346.755 427.696 341.212 429.369 335.965C436.975 338.103 453.662 342.99 453.662 352.391C453.662 361.88 437.649 366.813 429.636 369.116ZM422.539 404.727C414.102 409.462 401.569 398.128 395.795 392.742C399.625 388.679 403.453 383.957 407.189 378.713C413.762 378.148 419.97 377.223 425.6 375.961C427.445 383.192 431.013 399.971 422.539 404.727ZM360.341 404.66C351.903 399.942 355.76 383.741 357.695 376.213C363.263 377.408 369.426 378.267 376.014 378.785C379.774 383.916 383.714 388.633 387.683 392.763C382.779 397.363 368.819 409.399 360.341 404.66ZM329.338 352.391C329.338 342.867 345.925 338.015 353.705 335.882C355.406 341.247 357.638 346.856 360.331 352.528C357.603 358.285 355.34 363.983 353.623 369.411C346.204 367.352 329.338 361.921 329.338 352.391ZM360.251 300.407C368.724 295.652 381.87 307.232 387.494 312.444C383.545 316.556 379.642 321.237 375.914 326.339C369.521 326.913 363.401 327.836 357.774 329.072C355.663 320.875 351.788 305.157 360.251 300.407ZM411.344 332.459C415.681 332.989 419.837 333.695 423.738 334.559C422.567 338.199 421.107 342.006 419.388 345.908C416.895 341.323 414.219 336.829 411.344 332.459ZM391.565 316.468C394.243 319.281 396.926 322.423 399.565 325.831C394.212 325.586 388.851 325.585 383.498 325.828C386.139 322.451 388.845 319.314 391.565 316.468ZM363.662 345.904C361.971 342.016 360.524 338.192 359.343 334.5C363.221 333.658 367.358 332.97 371.667 332.448C368.783 336.809 366.112 341.301 363.662 345.904ZM371.79 372.735C367.339 372.254 363.14 371.601 359.263 370.782C360.463 367.025 361.942 363.119 363.669 359.146C366.152 363.798 368.864 368.333 371.79 372.735ZM391.726 388.711C388.973 385.832 386.228 382.647 383.547 379.221C388.93 379.426 394.323 379.426 399.706 379.194C397.059 382.682 394.386 385.871 391.726 388.711ZM419.443 358.944C421.26 362.96 422.791 366.845 424.008 370.538C420.066 371.411 415.811 372.113 411.327 372.635C414.224 368.181 416.943 363.618 419.443 358.944ZM403.949 373.317C395.715 373.887 387.429 373.881 379.192 373.364C374.512 366.735 370.345 359.764 366.749 352.526C370.328 345.304 374.464 338.346 379.122 331.728C387.365 331.124 395.659 331.122 403.902 331.731C408.52 338.349 412.65 345.289 416.312 352.446C412.693 359.665 408.535 366.637 403.949 373.317ZM422.45 300.239C430.925 304.979 427.152 321.811 425.301 329.131C419.661 327.869 413.537 326.93 407.125 326.346C403.39 321.189 399.519 316.5 395.634 312.441C401.331 307.117 414.057 295.546 422.45 300.239Z" fill="#53C1DE"/>
</svg>
