<svg width="2448" height="1428" viewBox="0 0 2448 1428" fill="none" xmlns="http://www.w3.org/2000/svg">
<rect x="0.209961" width="2447" height="1428" fill="url(#paint0_linear_55_1523)"/>
<circle cx="493.395" cy="533.84" r="1.39541" fill="#D9D9D9"/>
<circle cx="593.865" cy="526.862" r="1.39541" fill="#D9D9D9"/>
<circle cx="609.214" cy="624.541" r="1.39541" fill="#D9D9D9"/>
<circle cx="1580.42" cy="533.84" r="1.39541" fill="#D9D9D9"/>
<circle cx="1685.07" cy="524.071" r="1.39541" fill="#D9D9D9"/>
<circle cx="1503.67" cy="574.307" r="1.39541" fill="#D9D9D9"/>
<circle cx="1099" cy="507.326" r="1.39541" fill="#D9D9D9"/>
<circle cx="1696.24" cy="624.541" r="1.39541" fill="#D9D9D9"/>
<circle cx="1239.94" cy="605.005" r="1.39541" fill="#D9D9D9"/>
<circle cx="1318.08" cy="536.63" r="1.39541" fill="#D9D9D9"/>
<circle cx="1379.48" cy="659.426" r="1.39541" fill="#D9D9D9"/>
<circle cx="787.827" cy="493.372" r="1.39541" fill="#D9D9D9"/>
<circle cx="888.296" cy="486.395" r="1.39541" fill="#D9D9D9"/>
<circle cx="840.852" cy="545.003" r="1.39541" fill="#D9D9D9"/>
<circle cx="1461.81" cy="782.222" r="1.39541" fill="#D9D9D9"/>
<circle cx="1573.44" cy="747.337" r="1.39541" fill="#D9D9D9"/>
<circle cx="1588.79" cy="845.016" r="1.39541" fill="#D9D9D9"/>
<circle cx="493.395" cy="533.84" r="1.39541" fill="#D9D9D9"/>
<circle cx="593.865" cy="526.862" r="1.39541" fill="#D9D9D9"/>
<circle cx="609.214" cy="624.541" r="1.39541" fill="#D9D9D9"/>
<circle cx="1580.42" cy="533.84" r="1.39541" fill="#D9D9D9"/>
<circle cx="1685.07" cy="524.071" r="1.39541" fill="#D9D9D9"/>
<circle cx="1503.67" cy="574.307" r="1.39541" fill="#D9D9D9"/>
<circle cx="1099" cy="507.326" r="1.39541" fill="#D9D9D9"/>
<circle cx="1696.24" cy="624.541" r="1.39541" fill="#D9D9D9"/>
<circle cx="1239.94" cy="605.005" r="1.39541" fill="#D9D9D9"/>
<circle cx="1318.08" cy="536.63" r="1.39541" fill="#D9D9D9"/>
<circle cx="1379.48" cy="659.426" r="1.39541" fill="#D9D9D9"/>
<circle cx="787.827" cy="493.372" r="1.39541" fill="#D9D9D9"/>
<circle cx="888.296" cy="486.395" r="1.39541" fill="#D9D9D9"/>
<circle cx="840.852" cy="545.003" r="1.39541" fill="#D9D9D9"/>
<circle cx="1461.81" cy="782.222" r="1.39541" fill="#D9D9D9"/>
<circle cx="1573.44" cy="747.337" r="1.39541" fill="#D9D9D9"/>
<circle cx="1588.79" cy="845.016" r="1.39541" fill="#D9D9D9"/>
<circle cx="814.339" cy="719.429" r="1.39541" fill="#D9D9D9"/>
<circle cx="914.808" cy="712.451" r="1.39541" fill="#D9D9D9"/>
<circle cx="930.158" cy="810.13" r="1.39541" fill="#D9D9D9"/>
<circle cx="1901.36" cy="719.429" r="1.39541" fill="#D9D9D9"/>
<circle cx="2006.02" cy="709.661" r="1.39541" fill="#D9D9D9"/>
<circle cx="1824.61" cy="759.895" r="1.39541" fill="#D9D9D9"/>
<circle cx="1419.95" cy="692.916" r="1.39541" fill="#D9D9D9"/>
<circle cx="2017.18" cy="810.13" r="1.39541" fill="#D9D9D9"/>
<circle cx="1560.88" cy="790.595" r="1.39541" fill="#D9D9D9"/>
<circle cx="1639.03" cy="722.22" r="1.39541" fill="#D9D9D9"/>
<circle cx="1700.42" cy="845.016" r="1.39541" fill="#D9D9D9"/>
<circle cx="1108.77" cy="678.962" r="1.39541" fill="#D9D9D9"/>
<circle cx="1209.24" cy="671.984" r="1.39541" fill="#D9D9D9"/>
<circle cx="1161.8" cy="730.592" r="1.39541" fill="#D9D9D9"/>
<circle cx="1782.75" cy="967.811" r="1.39541" fill="#D9D9D9"/>
<circle cx="1894.39" cy="932.926" r="1.39541" fill="#D9D9D9"/>
<circle cx="1909.73" cy="1030.6" r="1.39541" fill="#D9D9D9"/>
<g filter="url(#filter0_d_55_1523)">
<path d="M1389 649C1416.61 649 1439 626.614 1439 599C1439 571.386 1416.61 549 1389 549C1361.39 549 1339 571.386 1339 599C1339 626.614 1361.39 649 1389 649Z" fill="#FF2759"/>
</g>
<g filter="url(#filter1_d_55_1523)">
<path d="M1362.5 929C1421.87 929 1470 880.871 1470 821.5C1470 762.129 1421.87 714 1362.5 714C1303.13 714 1255 762.129 1255 821.5C1255 880.871 1303.13 929 1362.5 929Z" fill="#FD3665"/>
</g>
<g filter="url(#filter2_d_55_1523)">
<path d="M1090 789C1181.13 789 1255 715.127 1255 624C1255 532.873 1181.13 459 1090 459C998.873 459 925 532.873 925 624C925 715.127 998.873 789 1090 789Z" fill="#B51CB7"/>
</g>
<defs>
<filter id="filter0_d_55_1523" x="1286.7" y="496.7" width="204.6" height="204.6" filterUnits="userSpaceOnUse" color-interpolation-filters="sRGB">
<feFlood flood-opacity="0" result="BackgroundImageFix"/>
<feColorMatrix in="SourceAlpha" type="matrix" values="0 0 0 0 0 0 0 0 0 0 0 0 0 0 0 0 0 0 127 0" result="hardAlpha"/>
<feOffset/>
<feGaussianBlur stdDeviation="26.15"/>
<feComposite in2="hardAlpha" operator="out"/>
<feColorMatrix type="matrix" values="0 0 0 0 1 0 0 0 0 0.152941 0 0 0 0 0.34902 0 0 0 1 0"/>
<feBlend mode="normal" in2="BackgroundImageFix" result="effect1_dropShadow_55_1523"/>
<feBlend mode="normal" in="SourceGraphic" in2="effect1_dropShadow_55_1523" result="shape"/>
</filter>
<filter id="filter1_d_55_1523" x="1142.56" y="601.555" width="439.89" height="439.89" filterUnits="userSpaceOnUse" color-interpolation-filters="sRGB">
<feFlood flood-opacity="0" result="BackgroundImageFix"/>
<feColorMatrix in="SourceAlpha" type="matrix" values="0 0 0 0 0 0 0 0 0 0 0 0 0 0 0 0 0 0 127 0" result="hardAlpha"/>
<feOffset/>
<feGaussianBlur stdDeviation="56.2225"/>
<feComposite in2="hardAlpha" operator="out"/>
<feColorMatrix type="matrix" values="0 0 0 0 0.959936 0 0 0 0 0.18768 0 0 0 0 0.366443 0 0 0 1 0"/>
<feBlend mode="normal" in2="BackgroundImageFix" result="effect1_dropShadow_55_1523"/>
<feBlend mode="normal" in="SourceGraphic" in2="effect1_dropShadow_55_1523" result="shape"/>
</filter>
<filter id="filter2_d_55_1523" x="752.41" y="286.41" width="675.18" height="675.18" filterUnits="userSpaceOnUse" color-interpolation-filters="sRGB">
<feFlood flood-opacity="0" result="BackgroundImageFix"/>
<feColorMatrix in="SourceAlpha" type="matrix" values="0 0 0 0 0 0 0 0 0 0 0 0 0 0 0 0 0 0 127 0" result="hardAlpha"/>
<feOffset/>
<feGaussianBlur stdDeviation="86.295"/>
<feComposite in2="hardAlpha" operator="out"/>
<feColorMatrix type="matrix" values="0 0 0 0 0.709365 0 0 0 0 0.108394 0 0 0 0 0.719551 0 0 0 1 0"/>
<feBlend mode="normal" in2="BackgroundImageFix" result="effect1_dropShadow_55_1523"/>
<feBlend mode="normal" in="SourceGraphic" in2="effect1_dropShadow_55_1523" result="shape"/>
</filter>
<linearGradient id="paint0_linear_55_1523" x1="1224" y1="449" x2="1223.71" y2="1428" gradientUnits="userSpaceOnUse">
<stop stop-color="#1B0F1F"/>
<stop offset="1"/>
</linearGradient>
</defs>
</svg>
