<svg width="1103" height="529" viewBox="0 0 1103 529" fill="none" xmlns="http://www.w3.org/2000/svg">
<path d="M1 174.693C88 193.693 264.9 205.193 276.5 99.1927C291 -33.3073 398 429.693 538.5 256.693C679 83.6927 791.5 450.193 874 285.193C956.5 120.193 1083 167.693 1100 82.1929" stroke="#1B0F1F" stroke-width="5"/>
<path d="M1 196.264C88 219.375 264.9 233.363 276.5 104.427C291 -56.742 398 506.439 538.5 296.006C679 85.5736 791.5 531.374 874 330.673C956.5 129.971 1083 187.749 1100 83.7492" stroke="#1B0F1F" stroke-width="5"/>
<path d="M1 216.278C88 243.203 264.9 259.5 276.5 109.284C291 -78.4859 398 577.647 538.5 332.483C679 87.3187 791.5 606.698 874 372.871C956.5 139.044 1083 206.358 1100 85.1933" stroke="#1B0F1F" stroke-width="5"/>
<path d="M1 233.938C88 264.229 264.9 282.563 276.5 113.57C291 -97.6716 398 640.478 538.5 364.668C679 88.8586 791.5 673.161 874 410.105C956.5 147.05 1083 222.778 1100 86.4674" stroke="#1B0F1F" stroke-width="5"/>
<path d="M1 242.964C88 274.975 264.9 294.351 276.5 115.76C291 -107.478 398 672.591 538.5 381.118C679 89.6456 791.5 707.13 874 429.136C956.5 151.142 1083 231.17 1100 87.1187" stroke="#1B0F1F" stroke-width="5"/>
<path d="M1 251.99C88 285.721 264.9 306.138 276.5 117.951C291 -117.284 398 704.705 538.5 397.569C679 90.4326 791.5 741.1 874 448.167C956.5 155.233 1083 239.563 1100 87.7699" stroke="#1B0F1F" stroke-width="5"/>
<circle cx="484.797" cy="138.212" r="74.7967" fill="#734285"/>
<circle cx="519.203" cy="106.797" r="74.7967" fill="#391447"/>
<circle cx="74" cy="35" r="1" fill="#D9D9D9"/>
<circle cx="146" cy="30" r="1" fill="#D9D9D9"/>
<circle cx="157" cy="100" r="1" fill="#D9D9D9"/>
<circle cx="853" cy="35" r="1" fill="#D9D9D9"/>
<circle cx="928" cy="28" r="1" fill="#D9D9D9"/>
<circle cx="798" cy="64" r="1" fill="#D9D9D9"/>
<circle cx="508" cy="16" r="1" fill="#D9D9D9"/>
<circle cx="936" cy="100" r="1" fill="#D9D9D9"/>
<circle cx="609" cy="86" r="1" fill="#D9D9D9"/>
<circle cx="665" cy="37" r="1" fill="#D9D9D9"/>
<circle cx="709" cy="125" r="1" fill="#D9D9D9"/>
<circle cx="285" cy="6" r="1" fill="#D9D9D9"/>
<circle cx="357" cy="1" r="1" fill="#D9D9D9"/>
<circle cx="323" cy="43" r="1" fill="#D9D9D9"/>
<circle cx="768" cy="213" r="1" fill="#D9D9D9"/>
<circle cx="848" cy="188" r="1" fill="#D9D9D9"/>
<circle cx="859" cy="258" r="1" fill="#D9D9D9"/>
</svg>
