<svg width="140" height="40" viewBox="0 0 140 40" fill="none" xmlns="http://www.w3.org/2000/svg">
<g clip-path="url(#clip0_1_145)">
<mask id="mask0_1_145" style="mask-type:luminance" maskUnits="userSpaceOnUse" x="0" y="0" width="140" height="40">
<path d="M140 0H0V40H140V0Z" fill="white"/>
</mask>
<g mask="url(#mask0_1_145)">
<path d="M40 20C40 8.9543 31.0457 0 20 0C8.9543 0 0 8.9543 0 20C0 31.0457 8.9543 40 20 40C31.0457 40 40 31.0457 40 20Z" fill="#391447"/>
<path d="M6.00498 15.9253L4 14.0118L6.00498 12.1067H6.96171L4.94841 14.0118L6.96171 15.9253H6.00498ZM10.8193 12.4145C11.1632 12.4145 11.4738 12.4894 11.7511 12.6392C12.0284 12.7834 12.2447 13.0024 12.4 13.2964C12.5609 13.5903 12.6413 13.9481 12.6413 14.3696V17.0567H11.8925V14.4777C11.8925 14.0229 11.7788 13.6763 11.5514 13.4378C11.3241 13.1938 11.0135 13.0718 10.6197 13.0718C10.2203 13.0718 9.9014 13.1966 9.66291 13.4461C9.42997 13.6957 9.3135 14.059 9.3135 14.536V17.0567H8.55643V10.9004H9.3135V13.1466C9.46325 12.9137 9.66846 12.7334 9.92913 12.6059C10.1954 12.4783 10.4921 12.4145 10.8193 12.4145ZM13.5535 11.7323V11.0418H15.1175V17.0567H14.3522V11.7323H13.5535ZM16.6842 12.1067H17.6409L19.6542 14.0118L17.6409 15.9253H16.6842L18.6975 14.0118L16.6842 12.1067ZM26.0453 17.1329C25.4864 17.1329 24.9855 17.0422 24.5428 16.8607C24.1 16.6793 23.7444 16.4107 23.4758 16.055C23.2145 15.6994 23.0766 15.2711 23.0621 14.7703H25.0436C25.0726 15.0534 25.1706 15.2712 25.3376 15.4237C25.5045 15.5688 25.7223 15.6414 25.9908 15.6414C26.2666 15.6414 26.4844 15.5796 26.6441 15.4562C26.8038 15.3256 26.8836 15.1478 26.8836 14.9227C26.8836 14.734 26.8183 14.578 26.6876 14.4546C26.5642 14.3312 26.4082 14.2296 26.2195 14.1498C26.038 14.07 25.7767 13.9792 25.4356 13.8776C24.942 13.7252 24.5392 13.5728 24.2271 13.4203C23.9149 13.2679 23.6464 13.0429 23.4214 12.7453C23.1964 12.4477 23.0839 12.0594 23.0839 11.5803C23.0839 10.869 23.3415 10.3138 23.8569 9.91455C24.3722 9.50808 25.0436 9.30485 25.8711 9.30485C26.713 9.30485 27.3917 9.50808 27.907 9.91455C28.4224 10.3138 28.6982 10.8726 28.7345 11.5912H26.7203C26.7058 11.3444 26.615 11.1521 26.4481 11.0142C26.2812 10.869 26.067 10.7964 25.8057 10.7964C25.5807 10.7964 25.3993 10.8581 25.2614 10.9815C25.1235 11.0977 25.0545 11.2682 25.0545 11.4932C25.0545 11.74 25.1706 11.9324 25.4029 12.0703C25.6352 12.2082 25.9981 12.357 26.4917 12.5167C26.9852 12.6836 27.3844 12.8433 27.6893 12.9957C28.0014 13.1481 28.2699 13.3695 28.495 13.6598C28.72 13.9502 28.8325 14.324 28.8325 14.7812C28.8325 15.2167 28.72 15.6123 28.495 15.968C28.2772 16.3236 27.9578 16.6067 27.5369 16.8172C27.1159 17.0277 26.6187 17.1329 26.0453 17.1329ZM33.7126 10.9162C34.4094 10.9162 34.9683 11.1485 35.3893 11.613C35.8103 12.0703 36.0208 12.7017 36.0208 13.5074V17.0567H34.1699V13.7578C34.1699 13.3514 34.0646 13.0356 33.8542 12.8106C33.6437 12.5856 33.3606 12.4731 33.0049 12.4731C32.6493 12.4731 32.3662 12.5856 32.1557 12.8106C31.9452 13.0356 31.84 13.3514 31.84 13.7578V17.0567H29.9782V9H31.84V11.7981C32.0287 11.5295 32.2864 11.3154 32.613 11.1557C32.9396 10.996 33.3061 10.9162 33.7126 10.9162ZM40.0799 17.1439C39.4848 17.1439 38.9476 17.0169 38.4686 16.7628C37.9968 16.5088 37.623 16.1458 37.3472 15.674C37.0786 15.2022 36.9443 14.6506 36.9443 14.0191C36.9443 13.3949 37.0822 12.8469 37.3581 12.3751C37.6339 11.8961 38.0113 11.5295 38.4904 11.2755C38.9694 11.0214 39.5065 10.8944 40.1017 10.8944C40.6969 10.8944 41.234 11.0214 41.7131 11.2755C42.1921 11.5295 42.5695 11.8961 42.8454 12.3751C43.1212 12.8469 43.2591 13.3949 43.2591 14.0191C43.2591 14.6433 43.1175 15.1949 42.8345 15.674C42.5587 16.1458 42.1776 16.5088 41.6913 16.7628C41.2122 17.0169 40.6751 17.1439 40.0799 17.1439ZM40.0799 15.5325C40.4356 15.5325 40.7368 15.4019 40.9836 15.1406C41.2376 14.8793 41.3647 14.5054 41.3647 14.0191C41.3647 13.5328 41.2413 13.159 40.9945 12.8977C40.755 12.6364 40.4574 12.5058 40.1017 12.5058C39.7388 12.5058 39.4376 12.6364 39.198 12.8977C38.9585 13.1518 38.8388 13.5256 38.8388 14.0191C38.8388 14.5054 38.9549 14.8793 39.1872 15.1406C39.4267 15.4019 39.7243 15.5325 40.0799 15.5325ZM50.2458 10.9815V17.0567H48.384V16.2292C48.1953 16.4978 47.9376 16.7156 47.611 16.8825C47.2917 17.0422 46.936 17.122 46.544 17.122C46.0795 17.122 45.6694 17.0204 45.3138 16.8172C44.9581 16.6067 44.6823 16.3055 44.4863 15.9135C44.2903 15.5216 44.1923 15.0607 44.1923 14.5308V10.9815H46.0432V14.2804C46.0432 14.6869 46.1485 15.0027 46.359 15.2277C46.5694 15.4527 46.8525 15.5651 47.2082 15.5651C47.5711 15.5651 47.8578 15.4527 48.0683 15.2277C48.2788 15.0027 48.384 14.6869 48.384 14.2804V10.9815H50.2458ZM53.4448 11.9941C53.6626 11.6602 53.9348 11.3989 54.2614 11.2102C54.588 11.0142 54.951 10.9162 55.3502 10.9162V12.8868H54.8384C54.3739 12.8868 54.0255 12.9884 53.7932 13.1917C53.561 13.3877 53.4448 13.7361 53.4448 14.2369V17.0567H51.5831V10.9815H53.4448V11.9941ZM62.4459 10.9815L58.6353 19.9419H56.632L58.0256 16.8499L55.5541 10.9815H57.6336L59.0381 14.7812L60.4317 10.9815H62.4459ZM62.749 14.0082C62.749 13.384 62.8651 12.836 63.0974 12.3642C63.3369 11.8924 63.6599 11.5295 64.0664 11.2755C64.4728 11.0214 64.9265 10.8944 65.4273 10.8944C65.8555 10.8944 66.2294 10.9815 66.5487 11.1557C66.8753 11.3299 67.1258 11.5586 67.3 11.8416V10.9815H69.1617V17.0567H67.3V16.1967C67.1185 16.4798 66.8645 16.7083 66.5378 16.8825C66.2185 17.0567 65.8447 17.1439 65.4164 17.1439C64.9229 17.1439 64.4728 17.0169 64.0664 16.7628C63.6599 16.5015 63.3369 16.1349 63.0974 15.6631C62.8651 15.184 62.749 14.6324 62.749 14.0082ZM67.3 14.0191C67.3 13.5546 67.1693 13.1881 66.908 12.9195C66.654 12.6509 66.3419 12.5167 65.9717 12.5167C65.6015 12.5167 65.2858 12.6509 65.0245 12.9195C64.7704 13.1808 64.6434 13.5437 64.6434 14.0082C64.6434 14.4728 64.7704 14.843 65.0245 15.1188C65.2858 15.3874 65.6015 15.5216 65.9717 15.5216C66.3419 15.5216 66.654 15.3874 66.908 15.1188C67.1693 14.8503 67.3 14.4837 67.3 14.0191ZM75.5813 17.1329C75.0224 17.1329 74.5215 17.0422 74.0788 16.8607C73.636 16.6793 73.2804 16.4107 73.0118 16.055C72.7505 15.6994 72.6126 15.2711 72.5981 14.7703H74.5796C74.6086 15.0534 74.7066 15.2712 74.8736 15.4237C75.0405 15.5688 75.2583 15.6414 75.5268 15.6414C75.8026 15.6414 76.0204 15.5796 76.1801 15.4562C76.3398 15.3256 76.4196 15.1478 76.4196 14.9227C76.4196 14.734 76.3543 14.578 76.2236 14.4546C76.1002 14.3312 75.9442 14.2296 75.7555 14.1498C75.574 14.07 75.3127 13.9792 74.9716 13.8776C74.478 13.7252 74.0752 13.5728 73.7631 13.4203C73.4509 13.2679 73.1824 13.0429 72.9574 12.7453C72.7324 12.4477 72.6199 12.0594 72.6199 11.5803C72.6199 10.869 72.8775 10.3138 73.3929 9.91455C73.9082 9.50808 74.5796 9.30485 75.4071 9.30485C76.249 9.30485 76.9277 9.50808 77.443 9.91455C77.9584 10.3138 78.2342 10.8726 78.2705 11.5912H76.2563C76.2418 11.3444 76.151 11.1521 75.9841 11.0142C75.8172 10.869 75.603 10.7964 75.3417 10.7964C75.1167 10.7964 74.9353 10.8581 74.7974 10.9815C74.6595 11.0977 74.5905 11.2682 74.5905 11.4932C74.5905 11.74 74.7066 11.9324 74.9389 12.0703C75.1712 12.2082 75.5341 12.357 76.0277 12.5167C76.5212 12.6836 76.9204 12.8433 77.2253 12.9957C77.5374 13.1481 77.8059 13.3695 78.031 13.6598C78.256 13.9502 78.3685 14.324 78.3685 14.7812C78.3685 15.2167 78.256 15.6123 78.031 15.968C77.8132 16.3236 77.4938 16.6067 77.0729 16.8172C76.6519 17.0277 76.1547 17.1329 75.5813 17.1329ZM83.2486 10.9162C83.9454 10.9162 84.5043 11.1485 84.9253 11.613C85.3463 12.0703 85.5568 12.7017 85.5568 13.5074V17.0567H83.7059V13.7578C83.7059 13.3514 83.6006 13.0356 83.3902 12.8106C83.1797 12.5856 82.8966 12.4731 82.5409 12.4731C82.1853 12.4731 81.9022 12.5856 81.6917 12.8106C81.4812 13.0356 81.376 13.3514 81.376 13.7578V17.0567H79.5142V9H81.376V11.7981C81.5647 11.5295 81.8224 11.3154 82.149 11.1557C82.4756 10.996 82.8422 10.9162 83.2486 10.9162ZM86.4803 14.0082C86.4803 13.384 86.5965 12.836 86.8287 12.3642C87.0683 11.8924 87.3913 11.5295 87.7977 11.2755C88.2042 11.0214 88.6578 10.8944 89.1587 10.8944C89.5869 10.8944 89.9607 10.9815 90.2801 11.1557C90.6067 11.3299 90.8571 11.5586 91.0313 11.8416V10.9815H92.8931V17.0567H91.0313V16.1967C90.8498 16.4798 90.5958 16.7083 90.2692 16.8825C89.9498 17.0567 89.576 17.1439 89.1478 17.1439C88.6542 17.1439 88.2042 17.0169 87.7977 16.7628C87.3913 16.5015 87.0683 16.1349 86.8287 15.6631C86.5965 15.184 86.4803 14.6324 86.4803 14.0082ZM91.0313 14.0191C91.0313 13.5546 90.9007 13.1881 90.6394 12.9195C90.3853 12.6509 90.0732 12.5167 89.703 12.5167C89.3329 12.5167 89.0171 12.6509 88.7558 12.9195C88.5018 13.1808 88.3748 13.5437 88.3748 14.0082C88.3748 14.4728 88.5018 14.843 88.7558 15.1188C89.0171 15.3874 89.3329 15.5216 89.703 15.5216C90.0732 15.5216 90.3853 15.3874 90.6394 15.1188C90.9007 14.8503 91.0313 14.4837 91.0313 14.0191ZM96.1017 11.9941C96.3195 11.6602 96.5917 11.3989 96.9183 11.2102C97.2449 11.0142 97.6078 10.9162 98.007 10.9162V12.8868H97.4953C97.0308 12.8868 96.6824 12.9884 96.4501 13.1917C96.2179 13.3877 96.1017 13.7361 96.1017 14.2369V17.0567H94.24V10.9815H96.1017V11.9941ZM106.649 10.9162C107.403 10.9162 108.002 11.1448 108.445 11.6021C108.895 12.0594 109.12 12.6945 109.12 13.5074V17.0567H107.269V13.7578C107.269 13.3659 107.164 13.0647 106.953 12.8542C106.75 12.6364 106.467 12.5275 106.104 12.5275C105.741 12.5275 105.455 12.6364 105.244 12.8542C105.041 13.0647 104.939 13.3659 104.939 13.7578V17.0567H103.088V13.7578C103.088 13.3659 102.983 13.0647 102.773 12.8542C102.569 12.6364 102.286 12.5275 101.923 12.5275C101.561 12.5275 101.274 12.6364 101.063 12.8542C100.86 13.0647 100.758 13.3659 100.758 13.7578V17.0567H98.8969V10.9815H100.758V11.7436C100.947 11.4896 101.194 11.29 101.499 11.1448C101.804 10.9924 102.148 10.9162 102.533 10.9162C102.99 10.9162 103.397 11.0142 103.753 11.2102C104.115 11.4061 104.399 11.6856 104.602 12.0485C104.812 11.7146 105.099 11.4424 105.462 11.2319C105.825 11.0214 106.22 10.9162 106.649 10.9162ZM110.052 14.0082C110.052 13.384 110.168 12.836 110.4 12.3642C110.64 11.8924 110.963 11.5295 111.369 11.2755C111.776 11.0214 112.229 10.8944 112.73 10.8944C113.159 10.8944 113.532 10.9815 113.852 11.1557C114.178 11.3299 114.429 11.5586 114.603 11.8416V10.9815H116.465V17.0567H114.603V16.1967C114.422 16.4798 114.167 16.7083 113.841 16.8825C113.521 17.0567 113.148 17.1439 112.719 17.1439C112.226 17.1439 111.776 17.0169 111.369 16.7628C110.963 16.5015 110.64 16.1349 110.4 15.6631C110.168 15.184 110.052 14.6324 110.052 14.0082ZM114.603 14.0191C114.603 13.5546 114.472 13.1881 114.211 12.9195C113.957 12.6509 113.645 12.5167 113.275 12.5167C112.905 12.5167 112.589 12.6509 112.327 12.9195C112.073 13.1808 111.946 13.5437 111.946 14.0082C111.946 14.4728 112.073 14.843 112.327 15.1188C112.589 15.3874 112.905 15.5216 113.275 15.5216C113.645 15.5216 113.957 15.3874 114.211 15.1188C114.472 14.8503 114.603 14.4837 114.603 14.0191ZM122.058 15.9253L120.053 14.0118L122.058 12.1067H123.015L121.002 14.0118L123.015 15.9253H122.058ZM127.438 9.21987L125.159 18.4711H124.41L126.681 9.21987H127.438ZM130.829 12.4145C131.173 12.4145 131.484 12.4894 131.761 12.6392C132.038 12.7834 132.255 13.0024 132.41 13.2964C132.571 13.5903 132.651 13.9481 132.651 14.3696V17.0567H131.903V14.4777C131.903 14.0229 131.789 13.6763 131.561 13.4378C131.334 13.1938 131.023 13.0718 130.63 13.0718C130.23 13.0718 129.911 13.1966 129.673 13.4461C129.44 13.6957 129.323 14.059 129.323 14.536V17.0567H128.566V10.9004H129.323V13.1466C129.473 12.9137 129.678 12.7334 129.939 12.6059C130.205 12.4783 130.502 12.4145 130.829 12.4145ZM133.563 11.7323V11.0418H135.128V17.0567H134.362V11.7323H133.563ZM136.694 12.1067H137.651L139.664 14.0118L137.651 15.9253H136.694L138.707 14.0118L136.694 12.1067Z" fill="white"/>
<path d="M6.02382 26.7684L4 24.8369L6.02382 22.914H6.98953L4.95733 24.8369L6.98953 26.7684H6.02382ZM9.36341 24.1567C9.51457 23.8936 9.7385 23.6752 10.0352 23.5017C10.3375 23.3226 10.6874 23.233 11.0849 23.233C11.4936 23.233 11.8631 23.331 12.1934 23.5269C12.5293 23.7229 12.7924 24 12.9827 24.3582C13.1731 24.711 13.2683 25.1225 13.2683 25.5927C13.2683 26.0574 13.1731 26.4716 12.9827 26.8356C12.7924 27.1994 12.5293 27.4822 12.1934 27.6837C11.8631 27.8852 11.4936 27.9861 11.0849 27.9861C10.693 27.9861 10.3459 27.8992 10.0436 27.7257C9.7469 27.5466 9.52016 27.3254 9.36341 27.0622V30.0938H8.59923V23.3086H9.36341V24.1567ZM12.4873 25.5927C12.4873 25.2456 12.4173 24.9432 12.2774 24.6858C12.1373 24.4283 11.9471 24.2324 11.7063 24.0979C11.4712 23.9636 11.2109 23.8964 10.9254 23.8964C10.6454 23.8964 10.3851 23.9664 10.1444 24.1063C9.90925 24.2407 9.71891 24.4395 9.57335 24.7026C9.43339 24.96 9.36341 25.2596 9.36341 25.6011C9.36341 25.9482 9.43339 26.2533 9.57335 26.5164C9.71891 26.774 9.90925 26.9727 10.1444 27.1127C10.3851 27.2471 10.6454 27.3142 10.9254 27.3142C11.2109 27.3142 11.4712 27.2471 11.7063 27.1127C11.9471 26.9727 12.1373 26.774 12.2774 26.5164C12.4173 26.2533 12.4873 25.9455 12.4873 25.5927ZM14.4169 22.914H15.3827L17.4148 24.8369L15.3827 26.7684H14.4169L16.4491 24.8369L14.4169 22.914ZM25.4014 23.2246L24.1334 27.9104H22.5463L21.8073 24.8705L21.0431 27.9104H19.4644L18.1879 23.2246H19.6239L20.2874 26.5752L21.0767 23.2246H22.5967L23.3944 26.5584L24.0494 23.2246H25.4014ZM30.3662 25.4919C30.3662 25.6263 30.3577 25.7662 30.3409 25.9119H27.0911C27.1135 26.2029 27.2059 26.4268 27.3682 26.5836C27.5362 26.7348 27.7405 26.8103 27.9812 26.8103C28.3395 26.8103 28.5886 26.6592 28.7286 26.3569H30.2569C30.1786 26.6648 30.0358 26.9419 29.8287 27.1882C29.6272 27.4345 29.3724 27.6277 29.0645 27.7676C28.7565 27.9076 28.4124 27.9776 28.0316 27.9776C27.5726 27.9776 27.1639 27.8796 26.8056 27.6837C26.4473 27.4878 26.1674 27.2079 25.9659 26.8439C25.7642 26.4801 25.6635 26.0545 25.6635 25.5676C25.6635 25.0804 25.7615 24.655 25.9574 24.2911C26.1589 23.9272 26.4389 23.6472 26.7972 23.4513C27.1555 23.2554 27.567 23.1574 28.0316 23.1574C28.4851 23.1574 28.8882 23.2525 29.2409 23.443C29.5936 23.6333 29.8678 23.9048 30.0638 24.2575C30.2654 24.6103 30.3662 25.0217 30.3662 25.4919ZM28.8966 25.114C28.8966 24.8677 28.8125 24.6718 28.6446 24.5262C28.4767 24.3806 28.2667 24.3079 28.0148 24.3079C27.7741 24.3079 27.5697 24.3779 27.4018 24.5178C27.2395 24.6578 27.1386 24.8565 27.0994 25.114H28.8966ZM32.5596 23.888C32.694 23.6696 32.8872 23.4934 33.139 23.359C33.3911 23.2246 33.6794 23.1574 34.0041 23.1574C34.3903 23.1574 34.7402 23.2554 35.0538 23.4513C35.3672 23.6472 35.6135 23.9272 35.7928 24.2911C35.9775 24.655 36.0698 25.0777 36.0698 25.5591C36.0698 26.0406 35.9775 26.466 35.7928 26.8356C35.6135 27.1994 35.3672 27.4822 35.0538 27.6837C34.7402 27.8796 34.3903 27.9776 34.0041 27.9776C33.6738 27.9776 33.3855 27.9133 33.139 27.7844C32.8928 27.6501 32.6996 27.4737 32.5596 27.2554V27.9104H31.1237V21.6963H32.5596V23.888ZM34.6087 25.5591C34.6087 25.2009 34.508 24.9209 34.3063 24.7193C34.1104 24.5122 33.8668 24.4086 33.5758 24.4086C33.2903 24.4086 33.0467 24.5122 32.8452 24.7193C32.6492 24.9265 32.5513 25.2092 32.5513 25.5676C32.5513 25.9258 32.6492 26.2085 32.8452 26.4156C33.0467 26.6228 33.2903 26.7264 33.5758 26.7264C33.8612 26.7264 34.1048 26.6228 34.3063 26.4156C34.508 26.2029 34.6087 25.9175 34.6087 25.5591ZM38.3173 25.5591C38.3173 25.0777 38.4068 24.655 38.5859 24.2911C38.7707 23.9272 39.0198 23.6472 39.3333 23.4513C39.6469 23.2554 39.9968 23.1574 40.383 23.1574C40.691 23.1574 40.9709 23.2218 41.2228 23.3506C41.4804 23.4793 41.6819 23.6528 41.8274 23.8713V21.6963H43.2634V27.9104H41.8274V27.2386C41.6931 27.4625 41.4999 27.6418 41.248 27.7761C41.0016 27.9104 40.7134 27.9776 40.383 27.9776C39.9968 27.9776 39.6469 27.8796 39.3333 27.6837C39.0198 27.4822 38.7707 27.1994 38.5859 26.8356C38.4068 26.466 38.3173 26.0406 38.3173 25.5591ZM41.8274 25.5676C41.8274 25.2092 41.7267 24.9265 41.5251 24.7193C41.3291 24.5122 41.0884 24.4086 40.8029 24.4086C40.5173 24.4086 40.2739 24.5122 40.0723 24.7193C39.8764 24.9209 39.7783 25.2009 39.7783 25.5591C39.7783 25.9175 39.8764 26.2029 40.0723 26.4156C40.2739 26.6228 40.5173 26.7264 40.8029 26.7264C41.0884 26.7264 41.3291 26.6228 41.5251 26.4156C41.7267 26.2085 41.8274 25.9258 41.8274 25.5676ZM48.7193 25.4919C48.7193 25.6263 48.711 25.7662 48.6942 25.9119H45.4443C45.4667 26.2029 45.5591 26.4268 45.7214 26.5836C45.8894 26.7348 46.0937 26.8103 46.3344 26.8103C46.6928 26.8103 46.9418 26.6592 47.0819 26.3569H48.6101C48.5318 26.6648 48.3891 26.9419 48.1819 27.1882C47.9803 27.4345 47.7256 27.6277 47.4177 27.7676C47.1099 27.9076 46.7656 27.9776 46.3848 27.9776C45.9258 27.9776 45.5171 27.8796 45.1588 27.6837C44.8004 27.4878 44.5206 27.2079 44.3191 26.8439C44.1175 26.4801 44.0168 26.0545 44.0168 25.5676C44.0168 25.0804 44.1147 24.655 44.3106 24.2911C44.5122 23.9272 44.7921 23.6472 45.1504 23.4513C45.5087 23.2554 45.9202 23.1574 46.3848 23.1574C46.8383 23.1574 47.2413 23.2525 47.5941 23.443C47.9468 23.6333 48.2212 23.9048 48.4171 24.2575C48.6186 24.6103 48.7193 25.0217 48.7193 25.4919ZM47.2498 25.114C47.2498 24.8677 47.1658 24.6718 46.9979 24.5262C46.8299 24.3806 46.62 24.3079 46.368 24.3079C46.1273 24.3079 45.9229 24.3779 45.755 24.5178C45.5927 24.6578 45.4919 24.8565 45.4527 25.114H47.2498ZM51.5847 26.5668L52.6008 23.2246H54.1292L52.4665 27.9104H50.6945L49.0318 23.2246H50.5686L51.5847 26.5668ZM57.0849 24.4171H56.3123V27.9104H54.8764V24.4171H54.3557V23.2246H54.8764V23.0902C54.8764 22.5137 55.0414 22.0769 55.3718 21.7803C55.7021 21.4779 56.1863 21.3267 56.8246 21.3267C56.9309 21.3267 57.0093 21.3296 57.0597 21.3352V22.5528C56.7854 22.5361 56.5922 22.5752 56.4803 22.6704C56.3683 22.7656 56.3123 22.9363 56.3123 23.1826V23.2246H57.0849V24.4171ZM59.8926 27.9776C59.4335 27.9776 59.0193 27.8796 58.6497 27.6837C58.2859 27.4878 57.9976 27.2079 57.7849 26.8439C57.5777 26.4801 57.4741 26.0545 57.4741 25.5676C57.4741 25.086 57.5805 24.6634 57.7932 24.2995C58.006 23.93 58.2971 23.6472 58.6665 23.4513C59.0361 23.2554 59.4503 23.1574 59.9094 23.1574C60.3684 23.1574 60.7828 23.2554 61.1522 23.4513C61.5218 23.6472 61.8128 23.93 62.0256 24.2995C62.2384 24.6634 62.3447 25.086 62.3447 25.5676C62.3447 26.0489 62.2355 26.4745 62.0172 26.8439C61.8045 27.2079 61.5106 27.4878 61.1354 27.6837C60.766 27.8796 60.3516 27.9776 59.8926 27.9776ZM59.8926 26.7348C60.1669 26.7348 60.3993 26.6339 60.5896 26.4324C60.7855 26.2309 60.8835 25.9426 60.8835 25.5676C60.8835 25.1924 60.7884 24.9041 60.5981 24.7026C60.4132 24.501 60.1837 24.4003 59.9094 24.4003C59.6296 24.4003 59.3972 24.501 59.2125 24.7026C59.0276 24.8985 58.9353 25.1868 58.9353 25.5676C58.9353 25.9426 59.0249 26.2309 59.204 26.4324C59.3887 26.6339 59.6184 26.7348 59.8926 26.7348ZM64.5425 21.6963V27.9104H63.1065V21.6963H64.5425ZM66.3053 22.7376C66.0534 22.7376 65.8463 22.6648 65.6838 22.5193C65.5271 22.368 65.4488 22.1833 65.4488 21.965C65.4488 21.7411 65.5271 21.5562 65.6838 21.4107C65.8463 21.2596 66.0534 21.1839 66.3053 21.1839C66.5517 21.1839 66.7532 21.2596 66.91 21.4107C67.0723 21.5562 67.1535 21.7411 67.1535 21.965C67.1535 22.1833 67.0723 22.368 66.91 22.5193C66.7532 22.6648 66.5517 22.7376 66.3053 22.7376ZM67.0192 23.2246V27.9104H65.5831V23.2246H67.0192ZM70.1927 27.9776C69.7337 27.9776 69.3194 27.8796 68.9499 27.6837C68.586 27.4878 68.2976 27.2079 68.0849 26.8439C67.8778 26.4801 67.7742 26.0545 67.7742 25.5676C67.7742 25.086 67.8806 24.6634 68.0934 24.2995C68.3061 23.93 68.5972 23.6472 68.9667 23.4513C69.3362 23.2554 69.7505 23.1574 70.2095 23.1574C70.6686 23.1574 71.0829 23.2554 71.4524 23.4513C71.8219 23.6472 72.1129 23.93 72.3258 24.2995C72.5385 24.6634 72.6448 25.086 72.6448 25.5676C72.6448 26.0489 72.5356 26.4745 72.3173 26.8439C72.1046 27.2079 71.8107 27.4878 71.4356 27.6837C71.0661 27.8796 70.6518 27.9776 70.1927 27.9776ZM70.1927 26.7348C70.467 26.7348 70.6994 26.6339 70.8897 26.4324C71.0857 26.2309 71.1836 25.9426 71.1836 25.5676C71.1836 25.1924 71.0885 24.9041 70.8981 24.7026C70.7134 24.501 70.4838 24.4003 70.2095 24.4003C69.9296 24.4003 69.6973 24.501 69.5126 24.7026C69.3278 24.8985 69.2354 25.1868 69.2354 25.5676C69.2354 25.9426 69.325 26.2309 69.5041 26.4324C69.6888 26.6339 69.9184 26.7348 70.1927 26.7348ZM75.6152 26.7684L73.5914 24.8369L75.6152 22.914H76.5809L74.5487 24.8369L76.5809 26.7684H75.6152ZM81.0457 20L78.7449 29.3381H77.9891L80.2816 20H81.0457ZM82.9485 24.1567C83.0996 23.8936 83.3237 23.6752 83.6203 23.5017C83.9226 23.3226 84.2725 23.233 84.6701 23.233C85.0787 23.233 85.4482 23.331 85.7785 23.5269C86.1145 23.7229 86.3776 24 86.5679 24.3582C86.7582 24.711 86.8534 25.1225 86.8534 25.5927C86.8534 26.0574 86.7582 26.4716 86.5679 26.8356C86.3776 27.1994 86.1145 27.4822 85.7785 27.6837C85.4482 27.8852 85.0787 27.9861 84.6701 27.9861C84.2781 27.9861 83.9311 27.8992 83.6288 27.7257C83.332 27.5466 83.1052 27.3254 82.9485 27.0622V30.0938H82.1844V23.3086H82.9485V24.1567ZM86.0724 25.5927C86.0724 25.2456 86.0024 24.9432 85.8625 24.6858C85.7225 24.4283 85.5322 24.2324 85.2915 24.0979C85.0563 23.9636 84.7959 23.8964 84.5105 23.8964C84.2306 23.8964 83.9702 23.9664 83.7296 24.1063C83.4943 24.2407 83.304 24.4395 83.1585 24.7026C83.0185 24.96 82.9485 25.2596 82.9485 25.6011C82.9485 25.9482 83.0185 26.2533 83.1585 26.5164C83.304 26.774 83.4943 26.9727 83.7296 27.1127C83.9702 27.2471 84.2306 27.3142 84.5105 27.3142C84.7959 27.3142 85.0563 27.2471 85.2915 27.1127C85.5322 26.9727 85.7225 26.774 85.8625 26.5164C86.0024 26.2533 86.0724 25.9455 86.0724 25.5927ZM88.002 22.914H88.9677L91 24.8369L88.9677 26.7684H88.002L90.0342 24.8369L88.002 22.914Z" fill="white"/>
</g>
</g>
<defs>
<clipPath id="clip0_1_145">
<rect width="140" height="40" fill="white"/>
</clipPath>
</defs>
</svg>
