<svg width="450" height="625" viewBox="0 0 450 625" fill="none" xmlns="http://www.w3.org/2000/svg">
<g clip-path="url(#clip0_1_544)">
<rect width="450" height="625" fill="#1B0F1F"/>
<path d="M-24 212.5C-17.1667 119.667 17.5 -47.0002 101.5 28.9998C206.5 124 223 -37 224.5 -45" stroke="black"/>
<path d="M-24 212.5C-17.1667 119.667 17.5 -47.0002 101.5 28.9998C206.5 124 223 -37 224.5 -45" stroke="black"/>
<path d="M-24 257.5C-17.1667 164.667 17.5 -2.00015 101.5 73.9998C206.5 169 223 8 224.5 0" stroke="black"/>
<path d="M464.492 421C458.39 513.884 425.038 680.819 340.442 605.483C234.697 511.313 219.465 672.438 218.028 680.449" stroke="black"/>
<path d="M462.492 359C456.39 451.884 423.038 618.819 338.442 543.483C232.697 449.313 217.465 610.438 216.028 618.449" stroke="black"/>
<path d="M191.229 94L177.451 248.341L115.522 265.509L53.763 248.365L40 94H191.229Z" fill="#E44D26"/>
<path d="M115.614 252.386L165.657 238.513L177.429 106.621H115.614V252.386Z" fill="#F16529"/>
<path d="M88.8317 144.487H115.614V125.555H68.1413L68.5942 130.634L73.2477 182.806H115.614V163.874H90.5621L88.8317 144.487ZM93.0987 192.272H74.0936L76.7458 221.999L115.527 232.764L115.614 232.74V213.043L115.531 213.065L94.4467 207.371L93.0987 192.272Z" fill="#EBEBEB"/>
<path d="M115.549 182.806H138.862L136.664 207.36L115.549 213.059V232.755L154.361 221.999L154.645 218.8L159.095 168.958L159.557 163.874H115.549V182.806ZM115.549 144.441V144.487H161.279L161.659 140.232L162.522 130.634L162.974 125.555H115.549V144.441Z" fill="white"/>
<path d="M227.49 247.571L214.333 94H372.218L359.061 247.571L293.276 266L227.49 247.571Z" fill="#1172B8"/>
<path d="M358.886 105.197H293.101V255.697L345.729 240.34L358.886 105.197Z" fill="#33AADD"/>
<path d="M316.126 181.982H250.341L247.052 160.482L299.68 145.125H247.052L243.762 126.697H345.73L342.44 148.197L299.68 163.554H339.151L332.572 221.911L293.101 234.197L253.63 221.911L250.341 191.197H270.077L273.366 206.554L293.101 212.697L312.837 206.554L316.126 181.982Z" fill="white"/>
<path d="M184.375 312.625H49.625V447.375H184.375V312.625Z" fill="#F5DE19"/>
<path d="M140.143 417.898C141.291 420.23 143.075 422.19 145.289 423.553C147.503 424.915 150.057 425.624 152.656 425.598C157.901 425.598 161.256 422.975 161.256 419.342C161.256 415.011 157.81 413.461 152.035 410.934L148.868 409.577C139.725 405.684 133.661 400.809 133.661 390.5C133.661 381.005 140.88 373.772 152.203 373.772C155.869 373.508 159.532 374.328 162.734 376.131C165.937 377.934 168.537 380.641 170.212 383.912L160.312 390.241C159.668 388.618 158.545 387.231 157.093 386.261C155.642 385.292 153.93 384.786 152.184 384.812C151.423 384.736 150.654 384.819 149.926 385.057C149.198 385.294 148.528 385.68 147.958 386.191C147.388 386.702 146.931 387.326 146.615 388.023C146.3 388.72 146.133 389.475 146.125 390.241C146.125 394.038 148.479 395.578 153.912 397.941L157.078 399.298C167.839 403.913 173.922 408.615 173.922 419.188C173.922 430.589 164.966 436.835 152.94 436.835C148.254 437.134 143.582 436.07 139.487 433.772C135.392 431.474 132.05 428.04 129.864 423.885L140.143 417.898ZM95.4111 418.995C97.3987 422.523 99.2082 425.507 103.559 425.507C107.717 425.507 110.344 423.88 110.344 417.552V374.494H123.006V417.72C123.006 430.829 115.306 436.797 104.098 436.797C100.136 437.013 96.2011 436.026 92.8108 433.964C89.4206 431.903 86.7335 428.864 85.1027 425.247L95.4111 418.995Z" fill="black"/>
<path d="M304.639 385.391C304.639 378.891 299.204 373.622 292.5 373.622C285.796 373.622 280.361 378.891 280.361 385.391C280.361 391.892 285.796 397.161 292.5 397.161C299.204 397.161 304.639 391.892 304.639 385.391Z" fill="#53C1DE"/>
<path fill-rule="evenodd" clip-rule="evenodd" d="M331.924 363.54C334.487 353.44 337.709 334.711 326.35 328.362C315.044 322.04 300.332 334.154 292.563 341.425C284.817 334.226 269.691 322.164 258.342 328.534C247.04 334.877 250.525 353.295 253.146 363.459C242.603 366.362 224.531 372.615 224.531 385.391C224.531 398.13 242.584 404.934 253.064 407.834C250.435 418.053 247.124 436.209 258.44 442.538C269.832 448.907 284.91 437.131 292.751 429.78C300.57 437.095 315.141 448.947 326.449 442.6C337.793 436.233 334.838 417.755 332.218 407.533C342.377 404.626 360.469 397.971 360.469 385.391C360.469 372.738 342.3 366.434 331.924 363.54ZM330.636 402.116C328.915 396.835 326.593 391.22 323.752 385.419C326.464 379.755 328.696 374.212 330.369 368.965C337.975 371.103 354.662 375.99 354.662 385.391C354.662 394.88 338.649 399.813 330.636 402.116ZM323.539 437.727C315.102 442.462 302.569 431.128 296.795 425.742C300.625 421.679 304.453 416.957 308.189 411.713C314.762 411.148 320.97 410.223 326.6 408.961C328.445 416.192 332.013 432.971 323.539 437.727ZM261.341 437.66C252.903 432.942 256.76 416.741 258.695 409.213C264.263 410.408 270.426 411.267 277.014 411.785C280.774 416.916 284.714 421.633 288.683 425.763C283.779 430.363 269.819 442.399 261.341 437.66ZM230.338 385.391C230.338 375.867 246.925 371.015 254.705 368.882C256.406 374.247 258.638 379.856 261.331 385.528C258.603 391.285 256.34 396.983 254.623 402.411C247.204 400.352 230.338 394.921 230.338 385.391ZM261.251 333.407C269.724 328.652 282.87 340.232 288.494 345.444C284.545 349.556 280.642 354.237 276.914 359.339C270.521 359.913 264.401 360.836 258.774 362.072C256.663 353.875 252.788 338.157 261.251 333.407ZM312.344 365.459C316.681 365.989 320.837 366.695 324.738 367.559C323.567 371.199 322.107 375.006 320.388 378.908C317.895 374.323 315.219 369.829 312.344 365.459ZM292.565 349.468C295.243 352.281 297.926 355.423 300.565 358.831C295.212 358.586 289.851 358.585 284.498 358.828C287.139 355.451 289.845 352.314 292.565 349.468ZM264.662 378.904C262.971 375.016 261.524 371.192 260.343 367.5C264.221 366.658 268.358 365.97 272.667 365.448C269.783 369.809 267.112 374.301 264.662 378.904ZM272.79 405.735C268.339 405.254 264.14 404.601 260.263 403.782C261.463 400.025 262.942 396.119 264.669 392.146C267.152 396.798 269.864 401.333 272.79 405.735ZM292.726 421.711C289.973 418.832 287.228 415.647 284.547 412.221C289.93 412.426 295.323 412.426 300.706 412.194C298.059 415.682 295.386 418.871 292.726 421.711ZM320.443 391.944C322.26 395.96 323.791 399.845 325.008 403.538C321.066 404.411 316.811 405.113 312.327 405.635C315.224 401.181 317.943 396.618 320.443 391.944ZM304.949 406.317C296.715 406.887 288.429 406.881 280.192 406.364C275.512 399.735 271.345 392.764 267.749 385.526C271.328 378.304 275.464 371.346 280.122 364.728C288.365 364.124 296.659 364.122 304.902 364.731C309.52 371.349 313.65 378.289 317.312 385.446C313.693 392.665 309.535 399.637 304.949 406.317ZM323.45 333.239C331.925 337.979 328.152 354.811 326.301 362.131C320.661 360.869 314.537 359.93 308.125 359.346C304.39 354.189 300.519 349.5 296.634 345.441C302.331 340.117 315.057 328.546 323.45 333.239Z" fill="#53C1DE"/>
<g filter="url(#filter0_f_1_544)">
<circle cx="26" cy="34" r="50" fill="#CC74EB"/>
</g>
<g filter="url(#filter1_f_1_544)">
<circle cx="429" cy="601" r="50" fill="#CC74EB"/>
</g>
</g>
<defs>
<filter id="filter0_f_1_544" x="-146" y="-138" width="344" height="344" filterUnits="userSpaceOnUse" color-interpolation-filters="sRGB">
<feFlood flood-opacity="0" result="BackgroundImageFix"/>
<feBlend mode="normal" in="SourceGraphic" in2="BackgroundImageFix" result="shape"/>
<feGaussianBlur stdDeviation="61" result="effect1_foregroundBlur_1_544"/>
</filter>
<filter id="filter1_f_1_544" x="257" y="429" width="344" height="344" filterUnits="userSpaceOnUse" color-interpolation-filters="sRGB">
<feFlood flood-opacity="0" result="BackgroundImageFix"/>
<feBlend mode="normal" in="SourceGraphic" in2="BackgroundImageFix" result="shape"/>
<feGaussianBlur stdDeviation="61" result="effect1_foregroundBlur_1_544"/>
</filter>
<clipPath id="clip0_1_544">
<rect width="450" height="625" fill="white"/>
</clipPath>
</defs>
</svg>
