<svg width="450" height="625" viewBox="0 0 450 625" fill="none" xmlns="http://www.w3.org/2000/svg">
<g clip-path="url(#clip0_1_472)">
<rect width="450" height="625" fill="#1B0F1F"/>
<path d="M-24 212.5C-17.1667 119.667 17.5 -47.0002 101.5 28.9998C206.5 124 223 -37 224.5 -45" stroke="black"/>
<path d="M-24 212.5C-17.1667 119.667 17.5 -47.0002 101.5 28.9998C206.5 124 223 -37 224.5 -45" stroke="black"/>
<path d="M-24 257.5C-17.1667 164.667 17.5 -2.00015 101.5 73.9998C206.5 169 223 8 224.5 0" stroke="black"/>
<path d="M464.492 421C458.39 513.884 425.038 680.819 340.442 605.483C234.697 511.313 219.465 672.438 218.028 680.449" stroke="black"/>
<path d="M462.492 359C456.39 451.884 423.038 618.819 338.442 543.483C232.697 449.313 217.465 610.438 216.028 618.449" stroke="black"/>
<g filter="url(#filter0_d_1_472)">
<path d="M278.669 410.731C268.574 410.731 260.299 409.572 253.845 407.255C247.556 404.938 242.84 400.47 239.695 393.85C236.551 387.065 234.979 377.218 234.979 364.31V261.29H322.36V364.31C322.36 377.218 320.788 387.065 317.643 393.85C314.499 400.47 309.699 404.938 303.245 407.255C296.791 409.572 288.599 410.731 278.669 410.731ZM278.669 406.511C287.771 406.511 295.219 405.435 301.011 403.283C306.803 401.132 311.106 397.077 313.92 391.12C316.733 384.996 318.14 376.06 318.14 364.31V265.51H280.159V376.473C280.159 378.625 279.662 379.701 278.669 379.701C277.676 379.701 277.18 378.625 277.18 376.473V265.51H239.199V364.31C239.199 375.894 240.606 384.748 243.419 390.871C246.232 396.829 250.535 400.967 256.328 403.283C262.285 405.435 269.733 406.511 278.669 406.511ZM278.669 404.276C270.395 404.276 263.444 403.283 257.817 401.297C252.356 399.312 248.218 395.422 245.405 389.63C242.757 383.838 241.433 375.398 241.433 364.31V267.496H275.194V375.977C275.194 379.949 276.352 381.935 278.669 381.935C281.152 381.935 282.393 379.949 282.393 375.977V267.496H316.154V364.31C316.154 375.398 314.747 383.838 311.934 389.63C309.286 395.422 305.148 399.312 299.522 401.297C294.06 403.283 287.109 404.276 278.669 404.276ZM327.567 408V261.29H367.037V408H327.567ZM331.291 404.028H363.065V265.261H331.291V404.028ZM333.276 402.042V267.247H361.328V402.042H333.276ZM278.669 579.731C268.574 579.731 260.299 578.572 253.845 576.255C247.556 573.938 242.84 569.47 239.695 562.85C236.551 556.065 234.979 546.218 234.979 533.31V430.29H322.36V533.31C322.36 546.218 320.788 556.065 317.643 562.85C314.499 569.47 309.699 573.938 303.245 576.255C296.791 578.572 288.599 579.731 278.669 579.731ZM278.669 575.511C287.771 575.511 295.219 574.435 301.011 572.283C306.803 570.132 311.106 566.077 313.92 560.12C316.733 553.996 318.14 545.06 318.14 533.31V434.51H280.159V545.473C280.159 547.625 279.662 548.701 278.669 548.701C277.676 548.701 277.18 547.625 277.18 545.473V434.51H239.199V533.31C239.199 544.894 240.606 553.748 243.419 559.871C246.232 565.829 250.535 569.967 256.328 572.283C262.285 574.435 269.733 575.511 278.669 575.511ZM278.669 573.276C270.395 573.276 263.444 572.283 257.817 570.297C252.356 568.312 248.218 564.422 245.405 558.63C242.757 552.838 241.433 544.398 241.433 533.31V436.496H275.194V544.977C275.194 548.949 276.352 550.935 278.669 550.935C281.152 550.935 282.393 548.949 282.393 544.977V436.496H316.154V533.31C316.154 544.398 314.747 552.838 311.934 558.63C309.286 564.422 305.148 568.312 299.522 570.297C294.06 572.283 287.109 573.276 278.669 573.276ZM325.829 577L344.944 501.038L326.078 430.29H374.485L376.222 443.446L377.712 430.29H427.608L409.238 501.287L426.863 577H379.201L377.712 561.361L376.222 577H325.829ZM331.539 572.532H372.747L377.215 547.211L382.676 572.532H421.65L405.018 501.038L421.899 434.758H380.939L376.222 460.079L370.761 434.758H331.787L349.412 501.038L331.539 572.532ZM334.269 570.297L351.646 501.038L334.766 436.992H369.023L376.47 471.994L382.676 436.992H419.168L402.536 501.038L418.671 570.297H384.414L376.967 535.544L370.761 570.297H334.269Z" fill="white" fill-opacity="0.35" shape-rendering="crispEdges"/>
</g>
<path d="M99.6667 359C127.175 359 149.5 336.674 149.5 309.166V259.333H99.6667C72.1587 259.333 49.8333 281.658 49.8333 309.166C49.8333 336.674 72.1587 359 99.6667 359Z" fill="#0ACF83"/>
<path d="M49.8333 209.5C49.8333 181.992 72.1587 159.667 99.6667 159.667H149.5V259.334H99.6667C72.1587 259.334 49.8333 237.008 49.8333 209.5Z" fill="#A259FF"/>
<path d="M49.8333 109.833C49.8333 82.3253 72.1586 60 99.6666 60H149.5V159.667H99.6666C72.1586 159.667 49.8333 137.341 49.8333 109.833Z" fill="#F24E1E"/>
<path d="M149.5 60H199.333C226.841 60 249.167 82.3253 249.167 109.833C249.167 137.341 226.841 159.667 199.333 159.667H149.5V60Z" fill="#FF7262"/>
<path d="M249.167 209.5C249.167 237.008 226.841 259.334 199.333 259.334C171.825 259.334 149.5 237.008 149.5 209.5C149.5 181.992 171.825 159.667 199.333 159.667C226.841 159.667 249.167 181.992 249.167 209.5Z" fill="#1ABCFE"/>
</g>
<defs>
<filter id="filter0_d_1_472" x="-15.0211" y="15.2896" width="692.629" height="818.441" filterUnits="userSpaceOnUse" color-interpolation-filters="sRGB">
<feFlood flood-opacity="0" result="BackgroundImageFix"/>
<feColorMatrix in="SourceAlpha" type="matrix" values="0 0 0 0 0 0 0 0 0 0 0 0 0 0 0 0 0 0 127 0" result="hardAlpha"/>
<feOffset dy="4"/>
<feGaussianBlur stdDeviation="125"/>
<feComposite in2="hardAlpha" operator="out"/>
<feColorMatrix type="matrix" values="0 0 0 0 0.8 0 0 0 0 0.454902 0 0 0 0 0.921569 0 0 0 1 0"/>
<feBlend mode="normal" in2="BackgroundImageFix" result="effect1_dropShadow_1_472"/>
<feBlend mode="normal" in="SourceGraphic" in2="effect1_dropShadow_1_472" result="shape"/>
</filter>
<clipPath id="clip0_1_472">
<rect width="450" height="625" fill="white"/>
</clipPath>
</defs>
</svg>
