<svg width="450" height="625" viewBox="0 0 450 625" fill="none" xmlns="http://www.w3.org/2000/svg">
<g clip-path="url(#clip0_1_511)">
<rect width="450" height="625" fill="#1B0F1F"/>
<path d="M-24 212.5C-17.1667 119.667 17.5 -47.0002 101.5 28.9998C206.5 124 223 -37 224.5 -45" stroke="black"/>
<path d="M-24 212.5C-17.1667 119.667 17.5 -47.0002 101.5 28.9998C206.5 124 223 -37 224.5 -45" stroke="black"/>
<path d="M-24 257.5C-17.1667 164.667 17.5 -2.00015 101.5 73.9998C206.5 169 223 8 224.5 0" stroke="black"/>
<path d="M464.492 421C458.39 513.884 425.038 680.819 340.442 605.483C234.697 511.313 219.465 672.438 218.028 680.449" stroke="black"/>
<path d="M462.492 359C456.39 451.884 423.038 618.819 338.442 543.483C232.697 449.313 217.465 610.438 216.028 618.449" stroke="black"/>
<g filter="url(#filter0_d_1_511)">
<path d="M152.586 472V367.827H202.998V395.148H185.372V403.961H201.412V433.574H185.372V472H152.586ZM155.407 468.827H182.552V430.401H198.592V407.134H182.552V391.975H200.002V371H155.407V468.827ZM156.817 467.241V372.586H198.592V390.389H181.141V408.721H197.182V428.815H181.141V467.241H156.817ZM205.604 472V384.748H233.454V388.979C236.157 386.981 239.271 385.689 242.796 385.101C246.439 384.396 250.14 384.513 253.901 385.453V413.656C252.256 413.303 250.728 413.01 249.318 412.775C248.025 412.422 246.439 412.246 244.559 412.246C241.268 412.246 239.153 413.068 238.213 414.714C237.273 416.241 236.803 419.12 236.803 423.351V472H205.604ZM208.424 468.827H233.983V423.351C233.983 417.71 234.746 413.95 236.274 412.07C237.802 410.072 240.563 409.073 244.559 409.073C245.499 409.073 246.556 409.132 247.731 409.249C249.024 409.367 250.14 409.543 251.08 409.778V387.921C247.203 386.981 243.501 387.157 239.976 388.45C236.45 389.743 233.689 391.917 231.691 394.972L230.457 387.745H208.424V468.827ZM210.01 467.241V389.331H229.223L230.986 399.378C232.396 395.266 234.864 392.328 238.389 390.565C241.915 388.803 245.616 388.333 249.494 389.155V408.016C248.671 407.898 247.849 407.839 247.026 407.839C246.204 407.722 245.381 407.663 244.559 407.663C240.093 407.663 236.979 408.779 235.216 411.012C233.454 413.127 232.572 417.24 232.572 423.351V467.241H210.01ZM286.009 473.939C278.958 473.939 273.2 473.116 268.735 471.471C264.269 469.709 260.92 466.477 258.687 461.777C256.572 457.076 255.515 450.143 255.515 440.977V408.368C255.515 398.85 258.159 392.269 263.447 388.626C268.735 384.983 276.255 383.162 286.009 383.162C295.762 383.162 303.283 384.983 308.571 388.626C313.859 392.269 316.503 398.85 316.503 408.368V440.977C316.503 450.143 315.386 457.076 313.154 461.777C310.921 466.477 307.572 469.709 303.106 471.471C298.641 473.116 292.942 473.939 286.009 473.939ZM286.009 470.766C292.354 470.766 297.525 470.002 301.52 468.475C305.633 466.947 308.629 464.068 310.51 459.838C312.507 455.49 313.506 449.203 313.506 440.977V408.368C313.506 399.907 311.097 394.149 306.279 391.094C301.579 387.921 294.822 386.335 286.009 386.335C277.195 386.335 270.38 387.921 265.562 391.094C260.861 394.149 258.511 399.907 258.511 408.368V440.977C258.511 449.203 259.451 455.49 261.331 459.838C263.329 464.068 266.384 466.947 270.497 468.475C274.61 470.002 279.781 470.766 286.009 470.766ZM286.009 469.18C280.016 469.18 275.08 468.475 271.202 467.065C267.324 465.537 264.445 462.775 262.565 458.78C260.803 454.667 259.921 448.733 259.921 440.977V408.368C259.921 400.495 262.154 395.148 266.619 392.328C271.085 389.39 277.548 387.921 286.009 387.921C294.352 387.921 300.756 389.39 305.222 392.328C309.687 395.148 311.92 400.495 311.92 408.368V440.977C311.92 448.733 310.98 454.667 309.099 458.78C307.337 462.775 304.516 465.537 300.639 467.065C296.878 468.475 292.002 469.18 286.009 469.18ZM286.009 456.489C287.301 456.489 288.065 456.019 288.3 455.078C288.535 454.021 288.653 453.081 288.653 452.258V404.666C288.653 403.021 288.418 401.905 287.947 401.317C287.595 400.73 286.949 400.436 286.009 400.436C285.186 400.436 284.54 400.73 284.07 401.317C283.6 401.787 283.365 402.904 283.365 404.666V452.258C283.365 453.433 283.482 454.432 283.717 455.255C284.07 456.077 284.833 456.489 286.009 456.489ZM286.009 454.902C285.304 454.902 284.951 454.021 284.951 452.258V404.666C284.951 402.904 285.304 402.022 286.009 402.022C286.714 402.022 287.066 402.904 287.066 404.666V452.258C287.066 454.021 286.714 454.902 286.009 454.902ZM319.385 472V384.572H347.411L347.94 387.745C351.348 384.925 355.578 383.515 360.631 383.515C368.269 383.515 373.44 385.63 376.142 389.86C378.963 393.973 380.373 400.319 380.373 408.897V472H319.385ZM322.381 468.827H348.645V407.134C348.88 407.017 349.291 406.958 349.879 406.958C350.584 406.958 350.936 407.545 350.936 408.721V468.827H377.376V408.897C377.376 401.611 376.201 396.088 373.851 392.328C371.501 388.568 367.035 386.687 360.455 386.687C357.164 386.687 354.285 387.392 351.818 388.803C349.467 390.095 347.587 391.917 346.177 394.267L345.12 387.745H322.381V468.827ZM323.791 467.241V389.331H343.886L345.648 399.555C346.588 396.264 348.351 393.562 350.936 391.447C353.522 389.331 356.753 388.274 360.631 388.274C366.506 388.274 370.502 390.036 372.617 393.562C374.732 396.97 375.79 402.081 375.79 408.897V467.241H352.346V409.249C352.346 407.604 352.111 406.547 351.641 406.077C351.171 405.607 350.466 405.372 349.526 405.372C348.704 405.372 347.94 405.548 347.235 405.9V467.241H323.791ZM415.327 472.881C410.627 472.881 406.279 472.294 402.283 471.119C398.288 469.944 395.056 467.652 392.589 464.244C390.239 460.719 389.063 455.549 389.063 448.733V407.134H381.837V388.274L391.884 384.396L395.056 368.885H420.615V383.162H432.777V407.134H420.615V444.503C420.615 446.265 421.673 447.147 423.788 447.147C424.963 447.147 426.373 447.029 428.018 446.794C429.663 446.441 431.25 446.206 432.777 446.089V469.356C431.837 469.709 430.838 470.061 429.781 470.414C428.723 470.649 427.666 470.884 426.608 471.119C424.845 471.589 422.965 472 420.968 472.353C418.97 472.705 417.09 472.881 415.327 472.881ZM415.327 469.532C417.09 469.532 418.794 469.415 420.439 469.18C422.201 468.945 423.788 468.651 425.198 468.298C426.021 468.063 426.784 467.887 427.489 467.77C428.312 467.535 429.135 467.3 429.957 467.065V449.262C428.312 449.379 426.843 449.555 425.55 449.791C424.258 449.908 423.318 449.967 422.73 449.967C421.085 449.967 419.792 449.614 418.852 448.909C418.03 448.087 417.619 446.618 417.619 444.503V403.961H429.957V386.335H417.619V372.057H397.348L394.175 386.864L384.833 390.565V403.961H391.884V448.733C391.884 454.608 392.941 459.074 395.056 462.129C397.289 465.067 400.168 467.065 403.694 468.122C407.336 469.062 411.214 469.532 415.327 469.532ZM415.327 467.946C411.449 467.946 407.865 467.535 404.575 466.712C401.285 465.772 398.582 463.951 396.467 461.248C394.469 458.428 393.47 454.256 393.47 448.733V402.375H386.243V391.623L395.409 387.921L398.582 373.644H416.208V387.921H428.371V402.375H416.208V444.503C416.208 447.44 416.796 449.379 417.971 450.319C419.146 451.259 420.733 451.729 422.73 451.729C423.67 451.729 424.669 451.671 425.727 451.553C426.784 451.318 427.666 451.142 428.371 451.024V465.831L424.317 466.888C421.731 467.593 418.735 467.946 415.327 467.946ZM152.586 592V487.827H202.998V515.148H185.372V523.961H201.412V553.574H185.372V565.031H202.998V592H152.586ZM155.583 589.18H200.002V568.38H182.552V550.401H198.415V527.134H182.552V511.975H200.002V490.647H155.583V589.18ZM156.993 587.77V492.057H198.592V510.389H181.141V528.721H197.005V548.815H181.141V569.967H198.592V587.77H156.993ZM205.604 592V504.572H233.63L234.159 507.745C237.567 504.925 241.797 503.515 246.85 503.515C254.488 503.515 259.659 505.63 262.361 509.86C265.182 513.973 266.592 520.319 266.592 528.897V592H205.604ZM208.6 588.827H234.864V527.134C235.099 527.017 235.51 526.958 236.098 526.958C236.803 526.958 237.155 527.545 237.155 528.721V588.827H263.595V528.897C263.595 521.611 262.42 516.088 260.07 512.328C257.72 508.568 253.254 506.687 246.674 506.687C243.383 506.687 240.504 507.392 238.037 508.803C235.687 510.095 233.806 511.917 232.396 514.267L231.339 507.745H208.6V588.827ZM210.01 587.241V509.331H230.105L231.867 519.555C232.808 516.264 234.57 513.562 237.155 511.447C239.741 509.331 242.972 508.274 246.85 508.274C252.726 508.274 256.721 510.036 258.836 513.562C260.951 516.97 262.009 522.081 262.009 528.897V587.241H238.566V529.249C238.566 527.604 238.331 526.547 237.86 526.077C237.39 525.607 236.685 525.372 235.745 525.372C234.923 525.372 234.159 525.548 233.454 525.9V587.241H210.01ZM294.143 593.058C288.502 593.058 283.802 592.294 280.042 590.766C276.399 589.121 273.637 586.124 271.757 581.777C269.995 577.311 269.113 570.848 269.113 562.387V524.138C269.113 518.497 270.112 514.149 272.11 511.094C274.225 507.921 276.81 505.747 279.865 504.572C283.038 503.28 286.211 502.633 289.384 502.633C292.792 502.633 295.553 503.103 297.668 504.043V480.776H330.101V592H306.658L305.776 589.18C304.484 590.237 302.839 591.177 300.841 592C298.961 592.705 296.728 593.058 294.143 593.058ZM294.143 589.885C297.551 589.885 300.254 589.18 302.251 587.77C304.366 586.242 305.953 584.773 307.01 583.363L308.773 588.827H327.105V484.125H300.665V509.684C299.49 508.509 298.021 507.569 296.258 506.864C294.495 506.159 292.204 505.806 289.384 505.806C286.681 505.806 283.978 506.335 281.276 507.392C278.573 508.45 276.34 510.33 274.577 513.033C272.932 515.618 272.11 519.32 272.11 524.138V562.387C272.11 570.026 272.874 575.842 274.401 579.838C276.046 583.716 278.455 586.359 281.628 587.77C284.918 589.18 289.09 589.885 294.143 589.885ZM294.143 588.298C289.56 588.298 285.741 587.652 282.686 586.359C279.63 585.067 277.339 582.54 275.811 578.78C274.401 575.02 273.696 569.555 273.696 562.387V524.138C273.696 519.79 274.46 516.441 275.988 514.091C277.633 511.74 279.63 510.095 281.981 509.155C284.448 508.097 286.916 507.569 289.384 507.569C293.379 507.569 296.258 508.274 298.021 509.684C299.901 510.976 301.311 512.387 302.251 513.914V485.712H325.518V587.241H309.831L307.363 579.661C306.658 581.307 305.189 583.187 302.956 585.302C300.841 587.3 297.903 588.298 294.143 588.298ZM299.607 574.197C301.37 574.197 302.251 572.611 302.251 569.438V521.846C301.899 521.729 301.487 521.67 301.017 521.67C300.665 521.552 300.195 521.494 299.607 521.494C297.962 521.494 297.139 523.08 297.139 526.253V569.438C297.139 572.611 297.962 574.197 299.607 574.197ZM299.607 572.611C298.902 572.611 298.55 571.553 298.55 569.438V526.253C298.55 524.138 298.902 523.08 299.607 523.08H300.665V569.438C300.665 571.553 300.312 572.611 299.607 572.611Z" fill="white" fill-opacity="0.35" shape-rendering="crispEdges"/>
</g>
<path d="M176.534 61.3643L166.233 176.759L119.931 189.596L73.756 176.777L63.4659 61.3643H176.534Z" fill="#E44D26"/>
<path d="M120 179.784L157.415 169.411L166.217 70.8008H120V179.784Z" fill="#F16529"/>
<path d="M99.9756 99.1114H120V84.9565H84.5062L84.8448 88.754L88.324 127.761H120V113.606H101.269L99.9756 99.1114ZM103.166 134.839H88.9565L90.9394 157.064L119.935 165.113L120 165.095V150.368L119.938 150.385L104.174 146.128L103.166 134.839Z" fill="#EBEBEB"/>
<path d="M119.951 127.761H137.381L135.738 146.119L119.951 150.38V165.106L148.969 157.064L149.182 154.673L152.509 117.407L152.854 113.606H119.951V127.761ZM119.951 99.0769V99.1114H154.142L154.426 95.9301L155.071 88.754L155.409 84.9565H119.951V99.0769Z" fill="white"/>
<path d="M193.868 176.179L184 61H302.413L292.546 176.179L243.207 190L193.868 176.179Z" fill="#1172B8"/>
<path d="M292.415 69.3975H243.076V182.272L282.547 170.755L292.415 69.3975Z" fill="#33AADD"/>
<path d="M260.345 126.987H211.006L208.539 110.862L248.01 99.3439H208.539L206.072 85.5225H282.547L280.08 101.647L248.01 113.165H277.613L272.679 156.933L243.076 166.147L213.473 156.933L211.006 133.897H225.807L228.274 145.415L243.076 150.022L257.878 145.415L260.345 126.987Z" fill="white"/>
<path d="M168.938 219.062H70.0625V317.938H168.938V219.062Z" fill="#F5DE19"/>
<path d="M136.482 296.308C137.324 298.019 138.633 299.458 140.258 300.457C141.882 301.457 143.756 301.977 145.663 301.958C149.512 301.958 151.973 300.034 151.973 297.368C151.973 294.189 149.445 293.052 145.208 291.199L142.884 290.203C136.175 287.346 131.725 283.769 131.725 276.205C131.725 269.238 137.022 263.93 145.331 263.93C148.021 263.736 150.708 264.338 153.058 265.661C155.408 266.984 157.316 268.97 158.545 271.371L151.281 276.014C150.808 274.824 149.984 273.805 148.919 273.094C147.854 272.383 146.598 272.012 145.317 272.031C144.758 271.975 144.194 272.036 143.66 272.21C143.126 272.384 142.634 272.668 142.216 273.043C141.798 273.417 141.462 273.875 141.231 274.387C140.999 274.898 140.877 275.453 140.871 276.014C140.871 278.8 142.598 279.93 146.585 281.664L148.908 282.66C156.804 286.046 161.268 289.496 161.268 297.255C161.268 305.62 154.696 310.204 145.871 310.204C142.433 310.423 139.005 309.642 136 307.956C132.996 306.27 130.543 303.75 128.939 300.701L136.482 296.308ZM103.659 297.113C105.117 299.702 106.445 301.891 109.637 301.891C112.688 301.891 114.616 300.698 114.616 296.054V264.46H123.907V296.178C123.907 305.797 118.257 310.175 110.033 310.175C107.126 310.334 104.238 309.61 101.751 308.097C99.2632 306.585 97.2915 304.355 96.0949 301.7L103.659 297.113Z" fill="black"/>
<path d="M258.716 273.904C258.716 268.166 253.918 263.514 248 263.514C242.082 263.514 237.284 268.166 237.284 273.904C237.284 279.642 242.082 284.294 248 284.294C253.918 284.294 258.716 279.642 258.716 273.904Z" fill="#53C1DE"/>
<path fill-rule="evenodd" clip-rule="evenodd" d="M282.802 254.615C285.064 245.699 287.909 229.166 277.882 223.561C267.901 217.98 254.914 228.674 248.056 235.093C241.218 228.738 227.865 218.089 217.847 223.713C207.87 229.312 210.947 245.571 213.26 254.543C203.953 257.106 188 262.626 188 273.904C188 285.15 203.937 291.155 213.188 293.716C210.866 302.737 207.944 318.764 217.933 324.351C227.989 329.973 241.3 319.578 248.222 313.089C255.124 319.546 267.986 330.008 277.969 324.406C287.982 318.785 285.374 302.474 283.061 293.45C292.029 290.884 308 285.009 308 273.904C308 262.734 291.961 257.169 282.802 254.615ZM281.665 288.668C280.146 284.006 278.096 279.049 275.588 273.928C277.982 268.928 279.952 264.035 281.429 259.404C288.144 261.291 302.874 265.605 302.874 273.904C302.874 282.28 288.738 286.635 281.665 288.668ZM275.4 320.104C267.952 324.284 256.888 314.278 251.791 309.524C255.173 305.938 258.552 301.769 261.85 297.14C267.652 296.641 273.132 295.825 278.102 294.711C279.73 301.094 282.881 315.905 275.4 320.104ZM220.494 320.044C213.046 315.88 216.45 301.578 218.158 294.933C223.073 295.988 228.514 296.746 234.33 297.203C237.649 301.733 241.126 305.896 244.63 309.543C240.301 313.603 227.978 324.228 220.494 320.044ZM193.126 273.904C193.126 265.496 207.768 261.213 214.636 259.33C216.138 264.066 218.108 269.018 220.485 274.025C218.077 279.106 216.079 284.136 214.563 288.928C208.015 287.11 193.126 282.316 193.126 273.904ZM220.415 228.014C227.894 223.817 239.499 234.039 244.464 238.641C240.978 242.27 237.532 246.402 234.241 250.906C228.598 251.413 223.195 252.228 218.228 253.319C216.365 246.083 212.944 232.207 220.415 228.014ZM265.517 256.308C269.346 256.777 273.014 257.4 276.459 258.162C275.425 261.376 274.136 264.736 272.618 268.181C270.418 264.133 268.056 260.166 265.517 256.308ZM248.057 242.192C250.422 244.676 252.79 247.449 255.119 250.458C250.394 250.241 245.661 250.24 240.936 250.455C243.268 247.474 245.656 244.705 248.057 242.192ZM223.426 268.178C221.933 264.745 220.656 261.37 219.613 258.11C223.037 257.367 226.688 256.76 230.492 256.299C227.946 260.149 225.588 264.114 223.426 268.178ZM230.601 291.863C226.672 291.438 222.965 290.861 219.542 290.139C220.602 286.822 221.907 283.374 223.432 279.867C225.624 283.973 228.018 287.977 230.601 291.863ZM248.199 305.966C245.77 303.424 243.346 300.612 240.979 297.588C245.731 297.769 250.492 297.77 255.244 297.564C252.907 300.643 250.548 303.459 248.199 305.966ZM272.667 279.689C274.271 283.234 275.623 286.663 276.697 289.924C273.217 290.694 269.461 291.314 265.503 291.774C268.06 287.843 270.46 283.814 272.667 279.689ZM258.989 292.376C251.72 292.88 244.406 292.874 237.135 292.418C233.004 286.566 229.326 280.412 226.151 274.023C229.31 267.648 232.962 261.506 237.074 255.663C244.35 255.13 251.671 255.128 258.948 255.666C263.024 261.508 266.67 267.634 269.903 273.952C266.708 280.325 263.038 286.479 258.989 292.376ZM275.321 227.866C282.802 232.05 279.472 246.909 277.838 253.37C272.86 252.256 267.453 251.428 261.793 250.912C258.496 246.36 255.079 242.221 251.65 238.638C256.678 233.938 267.912 223.724 275.321 227.866Z" fill="#53C1DE"/>
</g>
<defs>
<filter id="filter0_d_1_511" x="-24.9284" y="193.153" width="635.221" height="580.26" filterUnits="userSpaceOnUse" color-interpolation-filters="sRGB">
<feFlood flood-opacity="0" result="BackgroundImageFix"/>
<feColorMatrix in="SourceAlpha" type="matrix" values="0 0 0 0 0 0 0 0 0 0 0 0 0 0 0 0 0 0 127 0" result="hardAlpha"/>
<feOffset dy="2.84024"/>
<feGaussianBlur stdDeviation="88.7574"/>
<feComposite in2="hardAlpha" operator="out"/>
<feColorMatrix type="matrix" values="0 0 0 0 0.8 0 0 0 0 0.454902 0 0 0 0 0.921569 0 0 0 1 0"/>
<feBlend mode="normal" in2="BackgroundImageFix" result="effect1_dropShadow_1_511"/>
<feBlend mode="normal" in="SourceGraphic" in2="effect1_dropShadow_1_511" result="shape"/>
</filter>
<clipPath id="clip0_1_511">
<rect width="450" height="625" fill="white"/>
</clipPath>
</defs>
</svg>
