<svg width="1338" height="559" viewBox="0 0 1338 559" fill="none" xmlns="http://www.w3.org/2000/svg">
<circle cx="261" cy="72" r="1" fill="#D9D9D9"/>
<circle cx="333" cy="67" r="1" fill="#D9D9D9"/>
<circle cx="344" cy="137" r="1" fill="#D9D9D9"/>
<circle cx="1040" cy="72" r="1" fill="#D9D9D9"/>
<circle cx="1115" cy="65" r="1" fill="#D9D9D9"/>
<circle cx="985" cy="101" r="1" fill="#D9D9D9"/>
<circle cx="695" cy="53" r="1" fill="#D9D9D9"/>
<circle cx="1123" cy="137" r="1" fill="#D9D9D9"/>
<circle cx="796" cy="123" r="1" fill="#D9D9D9"/>
<circle cx="852" cy="74" r="1" fill="#D9D9D9"/>
<circle cx="896" cy="162" r="1" fill="#D9D9D9"/>
<circle cx="472" cy="43" r="1" fill="#D9D9D9"/>
<circle cx="544" cy="38" r="1" fill="#D9D9D9"/>
<circle cx="510" cy="80" r="1" fill="#D9D9D9"/>
<circle cx="955" cy="250" r="1" fill="#D9D9D9"/>
<circle cx="1035" cy="225" r="1" fill="#D9D9D9"/>
<circle cx="1046" cy="295" r="1" fill="#D9D9D9"/>
<circle cx="261" cy="72" r="1" fill="#D9D9D9"/>
<circle cx="333" cy="67" r="1" fill="#D9D9D9"/>
<circle cx="344" cy="137" r="1" fill="#D9D9D9"/>
<circle cx="1040" cy="72" r="1" fill="#D9D9D9"/>
<circle cx="1115" cy="65" r="1" fill="#D9D9D9"/>
<circle cx="985" cy="101" r="1" fill="#D9D9D9"/>
<circle cx="695" cy="53" r="1" fill="#D9D9D9"/>
<circle cx="1123" cy="137" r="1" fill="#D9D9D9"/>
<circle cx="796" cy="123" r="1" fill="#D9D9D9"/>
<circle cx="852" cy="74" r="1" fill="#D9D9D9"/>
<circle cx="896" cy="162" r="1" fill="#D9D9D9"/>
<circle cx="472" cy="43" r="1" fill="#D9D9D9"/>
<circle cx="544" cy="38" r="1" fill="#D9D9D9"/>
<circle cx="510" cy="80" r="1" fill="#D9D9D9"/>
<circle cx="955" cy="250" r="1" fill="#D9D9D9"/>
<circle cx="1035" cy="225" r="1" fill="#D9D9D9"/>
<circle cx="1046" cy="295" r="1" fill="#D9D9D9"/>
<circle cx="491" cy="205" r="1" fill="#D9D9D9"/>
<circle cx="563" cy="200" r="1" fill="#D9D9D9"/>
<circle cx="574" cy="270" r="1" fill="#D9D9D9"/>
<circle cx="1270" cy="205" r="1" fill="#D9D9D9"/>
<circle cx="1215" cy="234" r="1" fill="#D9D9D9"/>
<circle cx="925" cy="186" r="1" fill="#D9D9D9"/>
<circle cx="1026" cy="256" r="1" fill="#D9D9D9"/>
<circle cx="1082" cy="207" r="1" fill="#D9D9D9"/>
<circle cx="1126" cy="295" r="1" fill="#D9D9D9"/>
<circle cx="702" cy="176" r="1" fill="#D9D9D9"/>
<circle cx="774" cy="171" r="1" fill="#D9D9D9"/>
<circle cx="740" cy="213" r="1" fill="#D9D9D9"/>
<circle cx="1185" cy="383" r="1" fill="#D9D9D9"/>
<circle cx="1265" cy="358" r="1" fill="#D9D9D9"/>
<circle cx="1276" cy="428" r="1" fill="#D9D9D9"/>
<circle cx="1109.63" cy="478.982" r="1" transform="rotate(179.242 1109.63 478.982)" fill="#D9D9D9"/>
<circle cx="1037.7" cy="484.934" r="1" transform="rotate(179.242 1037.7 484.934)" fill="#D9D9D9"/>
<circle cx="1025.78" cy="415.086" r="1" transform="rotate(179.242 1025.78 415.086)" fill="#D9D9D9"/>
<circle cx="330.697" cy="489.29" r="1" transform="rotate(179.242 330.697 489.29)" fill="#D9D9D9"/>
<circle cx="255.796" cy="497.281" r="1" transform="rotate(179.242 255.796 497.281)" fill="#D9D9D9"/>
<circle cx="385.308" cy="459.565" r="1" transform="rotate(179.242 385.308 459.565)" fill="#D9D9D9"/>
<circle cx="675.918" cy="503.723" r="1" transform="rotate(179.242 675.918 503.723)" fill="#D9D9D9"/>
<circle cx="246.844" cy="425.394" r="1" transform="rotate(179.242 246.844 425.394)" fill="#D9D9D9"/>
<circle cx="574.001" cy="435.066" r="1" transform="rotate(179.242 574.001 435.066)" fill="#D9D9D9"/>
<circle cx="518.654" cy="484.802" r="1" transform="rotate(179.242 518.654 484.802)" fill="#D9D9D9"/>
<circle cx="473.493" cy="397.392" r="1" transform="rotate(179.242 473.493 397.392)" fill="#D9D9D9"/>
<circle cx="899.031" cy="510.771" r="1" transform="rotate(179.242 899.031 510.771)" fill="#D9D9D9"/>
<circle cx="827.103" cy="516.723" r="1" transform="rotate(179.242 827.103 516.723)" fill="#D9D9D9"/>
<circle cx="860.544" cy="474.277" r="1" transform="rotate(179.242 860.544 474.277)" fill="#D9D9D9"/>
<circle cx="413.334" cy="310.181" r="1" transform="rotate(179.242 413.334 310.181)" fill="#D9D9D9"/>
<circle cx="333.672" cy="336.237" r="1" transform="rotate(179.242 333.672 336.237)" fill="#D9D9D9"/>
<circle cx="321.746" cy="266.389" r="1" transform="rotate(179.242 321.746 266.389)" fill="#D9D9D9"/>
<circle cx="1109.63" cy="478.982" r="1" transform="rotate(179.242 1109.63 478.982)" fill="#D9D9D9"/>
<circle cx="1037.7" cy="484.934" r="1" transform="rotate(179.242 1037.7 484.934)" fill="#D9D9D9"/>
<circle cx="1025.78" cy="415.086" r="1" transform="rotate(179.242 1025.78 415.086)" fill="#D9D9D9"/>
<circle cx="330.697" cy="489.29" r="1" transform="rotate(179.242 330.697 489.29)" fill="#D9D9D9"/>
<circle cx="255.796" cy="497.281" r="1" transform="rotate(179.242 255.796 497.281)" fill="#D9D9D9"/>
<circle cx="385.308" cy="459.565" r="1" transform="rotate(179.242 385.308 459.565)" fill="#D9D9D9"/>
<circle cx="675.918" cy="503.723" r="1" transform="rotate(179.242 675.918 503.723)" fill="#D9D9D9"/>
<circle cx="246.844" cy="425.394" r="1" transform="rotate(179.242 246.844 425.394)" fill="#D9D9D9"/>
<circle cx="574.001" cy="435.066" r="1" transform="rotate(179.242 574.001 435.066)" fill="#D9D9D9"/>
<circle cx="518.654" cy="484.802" r="1" transform="rotate(179.242 518.654 484.802)" fill="#D9D9D9"/>
<circle cx="473.493" cy="397.392" r="1" transform="rotate(179.242 473.493 397.392)" fill="#D9D9D9"/>
<circle cx="899.031" cy="510.771" r="1" transform="rotate(179.242 899.031 510.771)" fill="#D9D9D9"/>
<circle cx="827.103" cy="516.723" r="1" transform="rotate(179.242 827.103 516.723)" fill="#D9D9D9"/>
<circle cx="860.544" cy="474.277" r="1" transform="rotate(179.242 860.544 474.277)" fill="#D9D9D9"/>
<circle cx="413.334" cy="310.181" r="1" transform="rotate(179.242 413.334 310.181)" fill="#D9D9D9"/>
<circle cx="333.672" cy="336.237" r="1" transform="rotate(179.242 333.672 336.237)" fill="#D9D9D9"/>
<circle cx="321.746" cy="266.389" r="1" transform="rotate(179.242 321.746 266.389)" fill="#D9D9D9"/>
<circle cx="877.888" cy="349.037" r="1" transform="rotate(179.242 877.888 349.037)" fill="#D9D9D9"/>
<circle cx="805.961" cy="354.989" r="1" transform="rotate(179.242 805.961 354.989)" fill="#D9D9D9"/>
<circle cx="794.036" cy="285.141" r="1" transform="rotate(179.242 794.036 285.141)" fill="#D9D9D9"/>
<circle cx="98.9568" cy="359.345" r="1" transform="rotate(179.242 98.9568 359.345)" fill="#D9D9D9"/>
<circle cx="24.0559" cy="367.337" r="1" transform="rotate(179.242 24.0559 367.337)" fill="#D9D9D9"/>
<circle cx="153.568" cy="329.62" r="1" transform="rotate(179.242 153.568 329.62)" fill="#D9D9D9"/>
<circle cx="444.178" cy="373.778" r="1" transform="rotate(179.242 444.178 373.778)" fill="#D9D9D9"/>
<circle cx="15.1038" cy="295.449" r="1" transform="rotate(179.242 15.1038 295.449)" fill="#D9D9D9"/>
<circle cx="342.261" cy="305.121" r="1" transform="rotate(179.242 342.261 305.121)" fill="#D9D9D9"/>
<circle cx="286.914" cy="354.858" r="1" transform="rotate(179.242 286.914 354.858)" fill="#D9D9D9"/>
<circle cx="241.753" cy="267.447" r="1" transform="rotate(179.242 241.753 267.447)" fill="#D9D9D9"/>
<circle cx="667.291" cy="380.826" r="1" transform="rotate(179.242 667.291 380.826)" fill="#D9D9D9"/>
<circle cx="595.363" cy="386.778" r="1" transform="rotate(179.242 595.363 386.778)" fill="#D9D9D9"/>
<circle cx="628.805" cy="344.332" r="1" transform="rotate(179.242 628.805 344.332)" fill="#D9D9D9"/>
<circle cx="181.594" cy="180.236" r="1" transform="rotate(179.242 181.594 180.236)" fill="#D9D9D9"/>
<circle cx="101.932" cy="206.292" r="1" transform="rotate(179.242 101.932 206.292)" fill="#D9D9D9"/>
<circle cx="90.0066" cy="136.444" r="1" transform="rotate(179.242 90.0066 136.444)" fill="#D9D9D9"/>
<g filter="url(#filter0_f_55_1350)">
<path d="M171.5 68.5C277.5 162.667 363.456 241.199 515.5 291C599.731 318.59 828 172.5 739 330.5C650 488.5 838.5 418.5 838.5 418.5C838.5 418.5 962.671 337.725 1048 349.5C1128.33 360.586 1206 481 1223.5 460.5" stroke="#D55FFF" stroke-width="6"/>
</g>
<g filter="url(#filter1_f_55_1350)">
<path d="M83.5 476.5C124 464 203 421.6 195 352" stroke="#D55FFF" stroke-width="6"/>
</g>
<defs>
<filter id="filter0_f_55_1350" x="61.1076" y="-42.1427" width="1273.07" height="616.386" filterUnits="userSpaceOnUse" color-interpolation-filters="sRGB">
<feFlood flood-opacity="0" result="BackgroundImageFix"/>
<feBlend mode="normal" in="SourceGraphic" in2="BackgroundImageFix" result="shape"/>
<feGaussianBlur stdDeviation="54.2" result="effect1_foregroundBlur_55_1350"/>
</filter>
<filter id="filter1_f_55_1350" x="0.215233" y="269.257" width="280.75" height="292.509" filterUnits="userSpaceOnUse" color-interpolation-filters="sRGB">
<feFlood flood-opacity="0" result="BackgroundImageFix"/>
<feBlend mode="normal" in="SourceGraphic" in2="BackgroundImageFix" result="shape"/>
<feGaussianBlur stdDeviation="41.2" result="effect1_foregroundBlur_55_1350"/>
</filter>
</defs>
</svg>
