<svg width="600" height="690" viewBox="0 0 600 690" fill="none" xmlns="http://www.w3.org/2000/svg">
<rect width="600" height="690" fill="#391447"/>
<path d="M99.5 231C114.128 231 126 219.128 126 204.5V178H99.5C84.872 178 73 189.872 73 204.5C73 219.128 84.872 231 99.5 231Z" fill="#0ACF83"/>
<path d="M73 151.5C73 136.872 84.872 125 99.5 125H126V178H99.5C84.872 178 73 166.128 73 151.5Z" fill="#A259FF"/>
<path d="M73.0002 98.5C73.0002 83.872 84.8722 72 99.5002 72H126V125H99.5002C84.8722 125 73.0002 113.128 73.0002 98.5Z" fill="#F24E1E"/>
<path d="M126 72H152.5C167.128 72 179 83.872 179 98.5C179 113.128 167.128 125 152.5 125H126V72Z" fill="#FF7262"/>
<path d="M179 151.5C179 166.128 167.128 178 152.5 178C137.872 178 126 166.128 126 151.5C126 136.872 137.872 125 152.5 125C167.128 125 179 136.872 179 151.5Z" fill="#1ABCFE"/>
<path d="M371.229 72L357.451 226.341L295.522 243.509L233.763 226.365L220 72H371.229Z" fill="#E44D26"/>
<path d="M295.614 230.386L345.656 216.513L357.429 84.6211H295.614V230.386Z" fill="#F16529"/>
<path d="M268.832 122.487H295.614V103.555H248.141L248.594 108.634L253.248 160.806H295.614V141.874H270.562L268.832 122.487ZM273.099 170.272H254.094L256.746 199.999L295.527 210.764L295.614 210.74V191.043L295.531 191.065L274.447 185.371L273.099 170.272Z" fill="#EBEBEB"/>
<path d="M295.549 160.806H318.862L316.664 185.36L295.549 191.059V210.755L334.361 199.999L334.645 196.8L339.095 146.958L339.557 141.874H295.549V160.806ZM295.549 122.441V122.487H341.279L341.659 118.232L342.522 108.634L342.974 103.555H295.549V122.441Z" fill="white"/>
<path d="M407.49 225.571L394.333 72H552.218L539.061 225.571L473.276 244L407.49 225.571Z" fill="#1172B8"/>
<path d="M538.886 83.1963H473.101V233.696L525.729 218.339L538.886 83.1963Z" fill="#33AADD"/>
<path d="M496.126 159.982H430.341L427.051 138.482L479.68 123.125H427.051L423.762 104.696H525.729L522.44 126.196L479.68 141.553H519.151L512.572 199.911L473.101 212.196L433.63 199.911L430.341 169.196H450.076L453.366 184.553L473.101 190.696L492.837 184.553L496.126 159.982Z" fill="white"/>
<path d="M278.75 267H144V401.75H278.75V267Z" fill="#F5DE19"/>
<path d="M234.143 377.898C235.291 380.23 237.075 382.19 239.289 383.553C241.503 384.915 244.057 385.624 246.656 385.598C251.901 385.598 255.256 382.975 255.256 379.342C255.256 375.011 251.81 373.461 246.035 370.934L242.868 369.577C233.725 365.684 227.661 360.809 227.661 350.5C227.661 341.005 234.88 333.772 246.203 333.772C249.869 333.508 253.532 334.328 256.734 336.131C259.937 337.934 262.537 340.641 264.212 343.912L254.313 350.241C253.668 348.618 252.545 347.231 251.093 346.261C249.642 345.292 247.93 344.786 246.184 344.812C245.423 344.736 244.654 344.819 243.926 345.057C243.198 345.294 242.528 345.68 241.958 346.191C241.388 346.702 240.931 347.326 240.615 348.023C240.3 348.72 240.133 349.475 240.125 350.241C240.125 354.038 242.479 355.578 247.912 357.941L251.079 359.298C261.839 363.913 267.922 368.615 267.922 379.188C267.922 390.589 258.966 396.835 246.94 396.835C242.254 397.134 237.582 396.07 233.487 393.772C229.392 391.474 226.05 388.04 223.864 383.885L234.143 377.898ZM189.411 378.995C191.399 382.523 193.208 385.507 197.559 385.507C201.717 385.507 204.344 383.88 204.344 377.552V334.494H217.006V377.72C217.006 390.829 209.306 396.797 198.098 396.797C194.136 397.013 190.201 396.026 186.811 393.964C183.421 391.903 180.734 388.864 179.103 385.247L189.411 378.995Z" fill="black"/>
<path d="M403.639 349.391C403.639 342.891 398.205 337.622 391.5 337.622C384.797 337.622 379.361 342.891 379.361 349.391C379.361 355.892 384.797 361.161 391.5 361.161C398.205 361.161 403.639 355.892 403.639 349.391Z" fill="#53C1DE"/>
<path fill-rule="evenodd" clip-rule="evenodd" d="M430.924 327.54C433.487 317.44 436.709 298.711 425.35 292.362C414.044 286.04 399.332 298.154 391.563 305.425C383.817 298.226 368.691 286.164 357.342 292.534C346.04 298.877 349.525 317.295 352.146 327.459C341.603 330.362 323.531 336.615 323.531 349.391C323.531 362.13 341.584 368.934 352.064 371.834C349.435 382.053 346.124 400.209 357.44 406.538C368.832 412.907 383.91 401.131 391.751 393.78C399.57 401.095 414.141 412.947 425.449 406.6C436.793 400.233 433.838 381.755 431.218 371.533C441.377 368.626 459.469 361.971 459.469 349.391C459.469 336.738 441.3 330.434 430.924 327.54ZM429.636 366.116C427.915 360.835 425.593 355.22 422.752 349.419C425.464 343.755 427.696 338.212 429.369 332.965C436.975 335.103 453.662 339.99 453.662 349.391C453.662 358.88 437.649 363.813 429.636 366.116ZM422.539 401.727C414.102 406.462 401.569 395.128 395.795 389.742C399.625 385.679 403.453 380.957 407.189 375.713C413.762 375.148 419.97 374.223 425.6 372.961C427.445 380.192 431.013 396.971 422.539 401.727ZM360.341 401.66C351.903 396.942 355.76 380.741 357.695 373.213C363.263 374.408 369.426 375.267 376.014 375.785C379.774 380.916 383.714 385.633 387.683 389.763C382.779 394.363 368.819 406.399 360.341 401.66ZM329.338 349.391C329.338 339.867 345.925 335.015 353.705 332.882C355.406 338.247 357.638 343.856 360.331 349.528C357.603 355.285 355.34 360.983 353.623 366.411C346.204 364.352 329.338 358.921 329.338 349.391ZM360.251 297.407C368.724 292.652 381.87 304.232 387.494 309.444C383.545 313.556 379.642 318.237 375.914 323.339C369.521 323.913 363.401 324.836 357.774 326.072C355.663 317.875 351.788 302.157 360.251 297.407ZM411.344 329.459C415.681 329.989 419.837 330.695 423.738 331.559C422.567 335.199 421.107 339.006 419.388 342.908C416.895 338.323 414.219 333.829 411.344 329.459ZM391.565 313.468C394.243 316.281 396.926 319.423 399.565 322.831C394.212 322.586 388.851 322.585 383.498 322.828C386.139 319.451 388.845 316.314 391.565 313.468ZM363.662 342.904C361.971 339.016 360.524 335.192 359.343 331.5C363.221 330.658 367.358 329.97 371.667 329.448C368.783 333.809 366.112 338.301 363.662 342.904ZM371.79 369.735C367.339 369.254 363.14 368.601 359.263 367.782C360.463 364.025 361.942 360.119 363.669 356.146C366.152 360.798 368.864 365.333 371.79 369.735ZM391.726 385.711C388.973 382.832 386.228 379.647 383.547 376.221C388.93 376.426 394.323 376.426 399.706 376.194C397.059 379.682 394.386 382.871 391.726 385.711ZM419.443 355.944C421.26 359.96 422.791 363.845 424.008 367.538C420.066 368.411 415.811 369.113 411.327 369.635C414.224 365.181 416.943 360.618 419.443 355.944ZM403.949 370.317C395.715 370.887 387.429 370.881 379.192 370.364C374.512 363.735 370.345 356.764 366.749 349.526C370.328 342.304 374.464 335.346 379.122 328.728C387.365 328.124 395.659 328.122 403.902 328.731C408.52 335.349 412.65 342.289 416.312 349.446C412.693 356.665 408.535 363.637 403.949 370.317ZM422.45 297.239C430.925 301.979 427.152 318.811 425.301 326.131C419.661 324.869 413.537 323.93 407.125 323.346C403.39 318.189 399.519 313.5 395.634 309.441C401.331 304.117 414.057 292.546 422.45 297.239Z" fill="#53C1DE"/>
<mask id="mask0_2_157" style="mask-type:luminance" maskUnits="userSpaceOnUse" x="236" y="455" width="166" height="100">
<path d="M236 455H402V554.6H236V455Z" fill="white"/>
</mask>
<g mask="url(#mask0_2_157)">
<path fill-rule="evenodd" clip-rule="evenodd" d="M319 455C296.867 455 283.033 466.067 277.5 488.2C285.8 477.133 295.483 472.983 306.55 475.75C312.864 477.327 317.377 481.91 322.372 486.98C330.509 495.24 339.928 504.8 360.5 504.8C382.633 504.8 396.467 493.733 402 471.6C393.7 482.667 384.017 486.817 372.95 484.05C366.636 482.473 362.123 477.89 357.128 472.82C348.991 464.56 339.572 455 319 455ZM277.5 504.8C255.367 504.8 241.533 515.867 236 538C244.3 526.933 253.983 522.783 265.05 525.55C271.364 527.13 275.877 531.71 280.872 536.78C289.009 545.04 298.428 554.6 319 554.6C341.133 554.6 354.967 543.533 360.5 521.4C352.2 532.467 342.517 536.617 331.45 533.85C325.136 532.273 320.623 527.69 315.628 522.62C307.491 514.36 298.072 504.8 277.5 504.8Z" fill="#38BDF8"/>
</g>
</svg>
